M48
;GenerationSoftware,Autodesk,EAGLE,9.6.2*%
;CreationDate,2022-07-21T20:03:04Z*%
FMAT,2
ICI,OFF
METRIC,TZ,000.000
T12C0.305
T11C0.350
T10C0.381
T9C0.400
T8C0.508
T7C0.650
T6C1.016
T5C1.100
T4C1.600
T3C2.311
T2C3.302
T1C3.800
%
G90
M71
T1
X55550Y23927
T2
X63500Y22860
X83820Y53340
X63500Y33020
X2540Y53340
X83820Y2540
X2540Y2540
T3
X9350Y30340
X9350Y43472
T4
X35560Y37940
T5
X35560Y17940
T6
X16891Y32258
X85090Y20320
X85090Y17780
X85090Y15240
X39370Y54610
X76200Y1270
X41910Y54610
X44450Y54610
X46990Y54610
X52070Y54610
X10160Y13970
X12700Y13970
X54610Y54610
X57150Y54610
X60960Y54610
X63500Y54610
X66040Y54610
X68580Y54610
X71120Y54610
X73660Y54610
X76200Y54610
X78740Y54610
X85090Y38100
X85090Y35560
X85090Y33020
X85090Y30480
X57150Y1270
X54610Y1270
X52070Y1270
X49530Y1270
X46990Y1270
X44450Y1270
X41910Y1270
X39370Y1270
X78740Y1270
X49530Y54610
X73660Y1270
X71120Y1270
X68580Y1270
X66040Y1270
X63500Y1270
X60960Y1270
X7635Y54610
X10175Y54610
X12715Y54610
X15255Y54610
X27940Y1270
X30480Y1270
X33020Y1270
X35560Y1270
X16891Y39878
X16891Y37338
X16891Y34798
X35560Y54610
X33020Y54610
X30480Y54610
X27940Y54610
X25400Y54610
X22860Y54610
X20320Y54610
X17780Y54610
X85090Y25400
X85090Y22860
T7
X4905Y20670
X4905Y14890
T8
X21158Y25248
X21158Y26518
X21158Y29058
X21158Y23978
X19888Y25248
X19888Y26518
X19888Y27788
X19888Y29058
X19888Y23978
X21158Y27788
T9
X1255Y22098
X1255Y13462
X5435Y13462
X5435Y22098
T10
X80010Y42672
X80010Y9652
T11
X58420Y36830
T12
X44602Y20955
X44501Y23216
X41859Y25248
X41910Y16764
X54610Y11430
X54610Y9046
X42367Y24397
X42418Y16256
X57150Y11938
X57150Y9046
X68580Y11176
X68580Y9144
X43891Y25933
X43840Y17018
X66040Y13169
X66040Y9144
X42799Y25222
X42926Y16764
X60960Y12446
X60960Y9144
X73660Y10668
X73660Y9144
X43291Y24781
X43434Y16256
X7620Y13081
X63449Y9144
X28480Y30201
X45514Y39830
X27870Y29877
X44958Y40335
X32004Y31750
X48387Y36373
X32512Y31242
X47924Y35865
X77724Y37592
X77724Y38608
X71120Y10748
X71120Y9144
X39878Y14224
X44450Y14224
X25654Y25146
X44983Y42748
X26162Y24384
X44958Y42059
X21336Y18288
X36551Y19990
X27635Y18237
X8636Y8890
X8636Y6858
X35567Y20059
X27051Y18733
X11811Y15367
X10922Y17780
X63500Y12954
X12192Y17780
X9652Y17780
X17501Y16307
X14859Y11176
X16129Y11176
X17399Y11176
X17069Y21133
X13005Y21742
X15478Y25146
X7620Y22479
X40157Y27407
X31648Y29591
X31623Y19558
X28677Y20168
X29032Y37186
X36220Y27305
X33096Y37186
X70561Y36678
X73228Y16612
X66116Y16612
X59766Y16612
X54686Y16612
X49606Y16358
X45034Y16358
X47066Y14580
X52146Y14580
X36652Y16358
X29286Y16358
X31826Y14326
X27762Y14326
X20574Y12954
X20650Y16358
X80010Y8636
X82728Y8712
X75997Y25502
X75997Y29312
X75997Y20930
X75489Y13183
X75743Y38710
X75743Y41504
X76759Y43790
X79883Y41631
X37135Y46076
X40691Y46076
X23952Y37186
X31648Y26289
X28854Y26289
X78105Y26924
X78105Y29210
X66548Y37084
X39370Y18923
X39370Y37084
X18796Y13970
X18796Y22073
X36652Y14326
X7112Y18412
X17755Y19558
X41402Y12700
X4953Y17780
X17729Y18821
X78105Y15037
X78029Y13005
X26670Y24892
X45847Y41729
X27178Y24384
X45209Y41018
X40005Y36449
X49296Y36322
X26568Y17399
X26670Y20690
X2032Y19304
X3556Y20599
X22860Y32004
X23927Y33071
X25883Y17424
X25908Y21198
X40945Y25013
X40945Y16764
X41148Y11938
X40234Y8026
X41453Y24587
X41402Y16256
X41910Y8255
X40386Y24638
X40386Y16256
X44196Y11659
X44450Y8230
M30