G04 EAGLE Gerber RS-274X export*
G75*
%MOMM*%
%FSLAX34Y34*%
%LPD*%
%IN*%
%IPPOS*%
%AMOC8*
5,1,8,0,0,1.08239X$1,22.5*%
G01*
%ADD10C,0.203200*%
%ADD11C,0.000000*%
%ADD12C,0.600000*%
%ADD13C,0.254000*%


D10*
X25400Y558800D02*
X838200Y558800D01*
X838814Y558793D01*
X839427Y558770D01*
X840040Y558733D01*
X840651Y558681D01*
X841262Y558615D01*
X841870Y558533D01*
X842476Y558437D01*
X843080Y558327D01*
X843681Y558202D01*
X844279Y558062D01*
X844873Y557908D01*
X845463Y557739D01*
X846049Y557557D01*
X846630Y557360D01*
X847207Y557149D01*
X847778Y556925D01*
X848344Y556687D01*
X848904Y556435D01*
X849457Y556169D01*
X850004Y555891D01*
X850544Y555599D01*
X851077Y555294D01*
X851602Y554976D01*
X852120Y554646D01*
X852629Y554304D01*
X853130Y553949D01*
X853622Y553582D01*
X854105Y553204D01*
X854579Y552814D01*
X855043Y552412D01*
X855498Y552000D01*
X855942Y551576D01*
X856376Y551142D01*
X856800Y550698D01*
X857212Y550243D01*
X857614Y549779D01*
X858004Y549305D01*
X858382Y548822D01*
X858749Y548330D01*
X859104Y547829D01*
X859446Y547320D01*
X859776Y546802D01*
X860094Y546277D01*
X860399Y545744D01*
X860691Y545204D01*
X860969Y544657D01*
X861235Y544104D01*
X861487Y543544D01*
X861725Y542978D01*
X861949Y542407D01*
X862160Y541830D01*
X862357Y541249D01*
X862539Y540663D01*
X862708Y540073D01*
X862862Y539479D01*
X863002Y538881D01*
X863127Y538280D01*
X863237Y537676D01*
X863333Y537070D01*
X863415Y536462D01*
X863481Y535851D01*
X863533Y535240D01*
X863570Y534627D01*
X863593Y534014D01*
X863600Y533400D01*
X863600Y25400D01*
X863593Y24786D01*
X863570Y24173D01*
X863533Y23560D01*
X863481Y22949D01*
X863415Y22338D01*
X863333Y21730D01*
X863237Y21124D01*
X863127Y20520D01*
X863002Y19919D01*
X862862Y19321D01*
X862708Y18727D01*
X862539Y18137D01*
X862357Y17551D01*
X862160Y16970D01*
X861949Y16393D01*
X861725Y15822D01*
X861487Y15256D01*
X861235Y14696D01*
X860969Y14143D01*
X860691Y13596D01*
X860399Y13056D01*
X860094Y12523D01*
X859776Y11998D01*
X859446Y11480D01*
X859104Y10971D01*
X858749Y10470D01*
X858382Y9978D01*
X858004Y9495D01*
X857614Y9021D01*
X857212Y8557D01*
X856800Y8102D01*
X856376Y7658D01*
X855942Y7224D01*
X855498Y6800D01*
X855043Y6388D01*
X854579Y5986D01*
X854105Y5596D01*
X853622Y5218D01*
X853130Y4851D01*
X852629Y4496D01*
X852120Y4154D01*
X851602Y3824D01*
X851077Y3506D01*
X850544Y3201D01*
X850004Y2909D01*
X849457Y2631D01*
X848904Y2365D01*
X848344Y2113D01*
X847778Y1875D01*
X847207Y1651D01*
X846630Y1440D01*
X846049Y1243D01*
X845463Y1061D01*
X844873Y892D01*
X844279Y738D01*
X843681Y598D01*
X843080Y473D01*
X842476Y363D01*
X841870Y267D01*
X841262Y185D01*
X840651Y119D01*
X840040Y67D01*
X839427Y30D01*
X838814Y7D01*
X838200Y0D01*
X25400Y0D01*
X24786Y7D01*
X24173Y30D01*
X23560Y67D01*
X22949Y119D01*
X22338Y185D01*
X21730Y267D01*
X21124Y363D01*
X20520Y473D01*
X19919Y598D01*
X19321Y738D01*
X18727Y892D01*
X18137Y1061D01*
X17551Y1243D01*
X16970Y1440D01*
X16393Y1651D01*
X15822Y1875D01*
X15256Y2113D01*
X14696Y2365D01*
X14143Y2631D01*
X13596Y2909D01*
X13056Y3201D01*
X12523Y3506D01*
X11998Y3824D01*
X11480Y4154D01*
X10971Y4496D01*
X10470Y4851D01*
X9978Y5218D01*
X9495Y5596D01*
X9021Y5986D01*
X8557Y6388D01*
X8102Y6800D01*
X7658Y7224D01*
X7224Y7658D01*
X6800Y8102D01*
X6388Y8557D01*
X5986Y9021D01*
X5596Y9495D01*
X5218Y9978D01*
X4851Y10470D01*
X4496Y10971D01*
X4154Y11480D01*
X3824Y11998D01*
X3506Y12523D01*
X3201Y13056D01*
X2909Y13596D01*
X2631Y14143D01*
X2365Y14696D01*
X2113Y15256D01*
X1875Y15822D01*
X1651Y16393D01*
X1440Y16970D01*
X1243Y17551D01*
X1061Y18137D01*
X892Y18727D01*
X738Y19321D01*
X598Y19919D01*
X473Y20520D01*
X363Y21124D01*
X267Y21730D01*
X185Y22338D01*
X119Y22949D01*
X67Y23560D01*
X30Y24173D01*
X7Y24786D01*
X0Y25400D01*
X0Y533400D01*
X7Y534014D01*
X30Y534627D01*
X67Y535240D01*
X119Y535851D01*
X185Y536462D01*
X267Y537070D01*
X363Y537676D01*
X473Y538280D01*
X598Y538881D01*
X738Y539479D01*
X892Y540073D01*
X1061Y540663D01*
X1243Y541249D01*
X1440Y541830D01*
X1651Y542407D01*
X1875Y542978D01*
X2113Y543544D01*
X2365Y544104D01*
X2631Y544657D01*
X2909Y545204D01*
X3201Y545744D01*
X3506Y546277D01*
X3824Y546802D01*
X4154Y547320D01*
X4496Y547829D01*
X4851Y548330D01*
X5218Y548822D01*
X5596Y549305D01*
X5986Y549779D01*
X6388Y550243D01*
X6800Y550698D01*
X7224Y551142D01*
X7658Y551576D01*
X8102Y552000D01*
X8557Y552412D01*
X9021Y552814D01*
X9495Y553204D01*
X9978Y553582D01*
X10470Y553949D01*
X10971Y554304D01*
X11480Y554646D01*
X11998Y554976D01*
X12523Y555294D01*
X13056Y555599D01*
X13596Y555891D01*
X14143Y556169D01*
X14696Y556435D01*
X15256Y556687D01*
X15822Y556925D01*
X16393Y557149D01*
X16970Y557360D01*
X17551Y557557D01*
X18137Y557739D01*
X18727Y557908D01*
X19321Y558062D01*
X19919Y558202D01*
X20520Y558327D01*
X21124Y558437D01*
X21730Y558533D01*
X22338Y558615D01*
X22949Y558681D01*
X23560Y558733D01*
X24173Y558770D01*
X24786Y558793D01*
X25400Y558800D01*
D11*
X45800Y206700D02*
X45802Y206813D01*
X45808Y206927D01*
X45818Y207040D01*
X45832Y207152D01*
X45849Y207264D01*
X45871Y207376D01*
X45897Y207486D01*
X45926Y207596D01*
X45959Y207704D01*
X45996Y207812D01*
X46037Y207917D01*
X46081Y208022D01*
X46129Y208125D01*
X46180Y208226D01*
X46235Y208325D01*
X46294Y208422D01*
X46356Y208517D01*
X46421Y208610D01*
X46489Y208701D01*
X46560Y208789D01*
X46635Y208875D01*
X46712Y208958D01*
X46792Y209038D01*
X46875Y209115D01*
X46961Y209190D01*
X47049Y209261D01*
X47140Y209329D01*
X47233Y209394D01*
X47328Y209456D01*
X47425Y209515D01*
X47524Y209570D01*
X47625Y209621D01*
X47728Y209669D01*
X47833Y209713D01*
X47938Y209754D01*
X48046Y209791D01*
X48154Y209824D01*
X48264Y209853D01*
X48374Y209879D01*
X48486Y209901D01*
X48598Y209918D01*
X48710Y209932D01*
X48823Y209942D01*
X48937Y209948D01*
X49050Y209950D01*
X49163Y209948D01*
X49277Y209942D01*
X49390Y209932D01*
X49502Y209918D01*
X49614Y209901D01*
X49726Y209879D01*
X49836Y209853D01*
X49946Y209824D01*
X50054Y209791D01*
X50162Y209754D01*
X50267Y209713D01*
X50372Y209669D01*
X50475Y209621D01*
X50576Y209570D01*
X50675Y209515D01*
X50772Y209456D01*
X50867Y209394D01*
X50960Y209329D01*
X51051Y209261D01*
X51139Y209190D01*
X51225Y209115D01*
X51308Y209038D01*
X51388Y208958D01*
X51465Y208875D01*
X51540Y208789D01*
X51611Y208701D01*
X51679Y208610D01*
X51744Y208517D01*
X51806Y208422D01*
X51865Y208325D01*
X51920Y208226D01*
X51971Y208125D01*
X52019Y208022D01*
X52063Y207917D01*
X52104Y207812D01*
X52141Y207704D01*
X52174Y207596D01*
X52203Y207486D01*
X52229Y207376D01*
X52251Y207264D01*
X52268Y207152D01*
X52282Y207040D01*
X52292Y206927D01*
X52298Y206813D01*
X52300Y206700D01*
X52298Y206587D01*
X52292Y206473D01*
X52282Y206360D01*
X52268Y206248D01*
X52251Y206136D01*
X52229Y206024D01*
X52203Y205914D01*
X52174Y205804D01*
X52141Y205696D01*
X52104Y205588D01*
X52063Y205483D01*
X52019Y205378D01*
X51971Y205275D01*
X51920Y205174D01*
X51865Y205075D01*
X51806Y204978D01*
X51744Y204883D01*
X51679Y204790D01*
X51611Y204699D01*
X51540Y204611D01*
X51465Y204525D01*
X51388Y204442D01*
X51308Y204362D01*
X51225Y204285D01*
X51139Y204210D01*
X51051Y204139D01*
X50960Y204071D01*
X50867Y204006D01*
X50772Y203944D01*
X50675Y203885D01*
X50576Y203830D01*
X50475Y203779D01*
X50372Y203731D01*
X50267Y203687D01*
X50162Y203646D01*
X50054Y203609D01*
X49946Y203576D01*
X49836Y203547D01*
X49726Y203521D01*
X49614Y203499D01*
X49502Y203482D01*
X49390Y203468D01*
X49277Y203458D01*
X49163Y203452D01*
X49050Y203450D01*
X48937Y203452D01*
X48823Y203458D01*
X48710Y203468D01*
X48598Y203482D01*
X48486Y203499D01*
X48374Y203521D01*
X48264Y203547D01*
X48154Y203576D01*
X48046Y203609D01*
X47938Y203646D01*
X47833Y203687D01*
X47728Y203731D01*
X47625Y203779D01*
X47524Y203830D01*
X47425Y203885D01*
X47328Y203944D01*
X47233Y204006D01*
X47140Y204071D01*
X47049Y204139D01*
X46961Y204210D01*
X46875Y204285D01*
X46792Y204362D01*
X46712Y204442D01*
X46635Y204525D01*
X46560Y204611D01*
X46489Y204699D01*
X46421Y204790D01*
X46356Y204883D01*
X46294Y204978D01*
X46235Y205075D01*
X46180Y205174D01*
X46129Y205275D01*
X46081Y205378D01*
X46037Y205483D01*
X45996Y205588D01*
X45959Y205696D01*
X45926Y205804D01*
X45897Y205914D01*
X45871Y206024D01*
X45849Y206136D01*
X45832Y206248D01*
X45818Y206360D01*
X45808Y206473D01*
X45802Y206587D01*
X45800Y206700D01*
X45800Y148900D02*
X45802Y149013D01*
X45808Y149127D01*
X45818Y149240D01*
X45832Y149352D01*
X45849Y149464D01*
X45871Y149576D01*
X45897Y149686D01*
X45926Y149796D01*
X45959Y149904D01*
X45996Y150012D01*
X46037Y150117D01*
X46081Y150222D01*
X46129Y150325D01*
X46180Y150426D01*
X46235Y150525D01*
X46294Y150622D01*
X46356Y150717D01*
X46421Y150810D01*
X46489Y150901D01*
X46560Y150989D01*
X46635Y151075D01*
X46712Y151158D01*
X46792Y151238D01*
X46875Y151315D01*
X46961Y151390D01*
X47049Y151461D01*
X47140Y151529D01*
X47233Y151594D01*
X47328Y151656D01*
X47425Y151715D01*
X47524Y151770D01*
X47625Y151821D01*
X47728Y151869D01*
X47833Y151913D01*
X47938Y151954D01*
X48046Y151991D01*
X48154Y152024D01*
X48264Y152053D01*
X48374Y152079D01*
X48486Y152101D01*
X48598Y152118D01*
X48710Y152132D01*
X48823Y152142D01*
X48937Y152148D01*
X49050Y152150D01*
X49163Y152148D01*
X49277Y152142D01*
X49390Y152132D01*
X49502Y152118D01*
X49614Y152101D01*
X49726Y152079D01*
X49836Y152053D01*
X49946Y152024D01*
X50054Y151991D01*
X50162Y151954D01*
X50267Y151913D01*
X50372Y151869D01*
X50475Y151821D01*
X50576Y151770D01*
X50675Y151715D01*
X50772Y151656D01*
X50867Y151594D01*
X50960Y151529D01*
X51051Y151461D01*
X51139Y151390D01*
X51225Y151315D01*
X51308Y151238D01*
X51388Y151158D01*
X51465Y151075D01*
X51540Y150989D01*
X51611Y150901D01*
X51679Y150810D01*
X51744Y150717D01*
X51806Y150622D01*
X51865Y150525D01*
X51920Y150426D01*
X51971Y150325D01*
X52019Y150222D01*
X52063Y150117D01*
X52104Y150012D01*
X52141Y149904D01*
X52174Y149796D01*
X52203Y149686D01*
X52229Y149576D01*
X52251Y149464D01*
X52268Y149352D01*
X52282Y149240D01*
X52292Y149127D01*
X52298Y149013D01*
X52300Y148900D01*
X52298Y148787D01*
X52292Y148673D01*
X52282Y148560D01*
X52268Y148448D01*
X52251Y148336D01*
X52229Y148224D01*
X52203Y148114D01*
X52174Y148004D01*
X52141Y147896D01*
X52104Y147788D01*
X52063Y147683D01*
X52019Y147578D01*
X51971Y147475D01*
X51920Y147374D01*
X51865Y147275D01*
X51806Y147178D01*
X51744Y147083D01*
X51679Y146990D01*
X51611Y146899D01*
X51540Y146811D01*
X51465Y146725D01*
X51388Y146642D01*
X51308Y146562D01*
X51225Y146485D01*
X51139Y146410D01*
X51051Y146339D01*
X50960Y146271D01*
X50867Y146206D01*
X50772Y146144D01*
X50675Y146085D01*
X50576Y146030D01*
X50475Y145979D01*
X50372Y145931D01*
X50267Y145887D01*
X50162Y145846D01*
X50054Y145809D01*
X49946Y145776D01*
X49836Y145747D01*
X49726Y145721D01*
X49614Y145699D01*
X49502Y145682D01*
X49390Y145668D01*
X49277Y145658D01*
X49163Y145652D01*
X49050Y145650D01*
X48937Y145652D01*
X48823Y145658D01*
X48710Y145668D01*
X48598Y145682D01*
X48486Y145699D01*
X48374Y145721D01*
X48264Y145747D01*
X48154Y145776D01*
X48046Y145809D01*
X47938Y145846D01*
X47833Y145887D01*
X47728Y145931D01*
X47625Y145979D01*
X47524Y146030D01*
X47425Y146085D01*
X47328Y146144D01*
X47233Y146206D01*
X47140Y146271D01*
X47049Y146339D01*
X46961Y146410D01*
X46875Y146485D01*
X46792Y146562D01*
X46712Y146642D01*
X46635Y146725D01*
X46560Y146811D01*
X46489Y146899D01*
X46421Y146990D01*
X46356Y147083D01*
X46294Y147178D01*
X46235Y147275D01*
X46180Y147374D01*
X46129Y147475D01*
X46081Y147578D01*
X46037Y147683D01*
X45996Y147788D01*
X45959Y147896D01*
X45926Y148004D01*
X45897Y148114D01*
X45871Y148224D01*
X45849Y148336D01*
X45832Y148448D01*
X45818Y148560D01*
X45808Y148673D01*
X45802Y148787D01*
X45800Y148900D01*
D12*
X48850Y220980D02*
X59850Y220980D01*
X59850Y134620D02*
X48850Y134620D01*
X15700Y220980D02*
X9500Y220980D01*
X9500Y134620D02*
X15700Y134620D01*
D11*
X821690Y533400D02*
X821695Y533805D01*
X821710Y534210D01*
X821735Y534615D01*
X821770Y535018D01*
X821814Y535421D01*
X821869Y535823D01*
X821933Y536223D01*
X822007Y536621D01*
X822091Y537017D01*
X822185Y537412D01*
X822288Y537803D01*
X822401Y538193D01*
X822523Y538579D01*
X822655Y538962D01*
X822796Y539342D01*
X822947Y539718D01*
X823106Y540091D01*
X823275Y540459D01*
X823453Y540823D01*
X823639Y541183D01*
X823835Y541538D01*
X824039Y541888D01*
X824251Y542233D01*
X824472Y542572D01*
X824702Y542907D01*
X824939Y543235D01*
X825184Y543557D01*
X825438Y543874D01*
X825698Y544184D01*
X825967Y544487D01*
X826243Y544784D01*
X826526Y545074D01*
X826816Y545357D01*
X827113Y545633D01*
X827416Y545902D01*
X827726Y546162D01*
X828043Y546416D01*
X828365Y546661D01*
X828693Y546898D01*
X829028Y547128D01*
X829367Y547349D01*
X829712Y547561D01*
X830062Y547765D01*
X830417Y547961D01*
X830777Y548147D01*
X831141Y548325D01*
X831509Y548494D01*
X831882Y548653D01*
X832258Y548804D01*
X832638Y548945D01*
X833021Y549077D01*
X833407Y549199D01*
X833797Y549312D01*
X834188Y549415D01*
X834583Y549509D01*
X834979Y549593D01*
X835377Y549667D01*
X835777Y549731D01*
X836179Y549786D01*
X836582Y549830D01*
X836985Y549865D01*
X837390Y549890D01*
X837795Y549905D01*
X838200Y549910D01*
X838605Y549905D01*
X839010Y549890D01*
X839415Y549865D01*
X839818Y549830D01*
X840221Y549786D01*
X840623Y549731D01*
X841023Y549667D01*
X841421Y549593D01*
X841817Y549509D01*
X842212Y549415D01*
X842603Y549312D01*
X842993Y549199D01*
X843379Y549077D01*
X843762Y548945D01*
X844142Y548804D01*
X844518Y548653D01*
X844891Y548494D01*
X845259Y548325D01*
X845623Y548147D01*
X845983Y547961D01*
X846338Y547765D01*
X846688Y547561D01*
X847033Y547349D01*
X847372Y547128D01*
X847707Y546898D01*
X848035Y546661D01*
X848357Y546416D01*
X848674Y546162D01*
X848984Y545902D01*
X849287Y545633D01*
X849584Y545357D01*
X849874Y545074D01*
X850157Y544784D01*
X850433Y544487D01*
X850702Y544184D01*
X850962Y543874D01*
X851216Y543557D01*
X851461Y543235D01*
X851698Y542907D01*
X851928Y542572D01*
X852149Y542233D01*
X852361Y541888D01*
X852565Y541538D01*
X852761Y541183D01*
X852947Y540823D01*
X853125Y540459D01*
X853294Y540091D01*
X853453Y539718D01*
X853604Y539342D01*
X853745Y538962D01*
X853877Y538579D01*
X853999Y538193D01*
X854112Y537803D01*
X854215Y537412D01*
X854309Y537017D01*
X854393Y536621D01*
X854467Y536223D01*
X854531Y535823D01*
X854586Y535421D01*
X854630Y535018D01*
X854665Y534615D01*
X854690Y534210D01*
X854705Y533805D01*
X854710Y533400D01*
X854705Y532995D01*
X854690Y532590D01*
X854665Y532185D01*
X854630Y531782D01*
X854586Y531379D01*
X854531Y530977D01*
X854467Y530577D01*
X854393Y530179D01*
X854309Y529783D01*
X854215Y529388D01*
X854112Y528997D01*
X853999Y528607D01*
X853877Y528221D01*
X853745Y527838D01*
X853604Y527458D01*
X853453Y527082D01*
X853294Y526709D01*
X853125Y526341D01*
X852947Y525977D01*
X852761Y525617D01*
X852565Y525262D01*
X852361Y524912D01*
X852149Y524567D01*
X851928Y524228D01*
X851698Y523893D01*
X851461Y523565D01*
X851216Y523243D01*
X850962Y522926D01*
X850702Y522616D01*
X850433Y522313D01*
X850157Y522016D01*
X849874Y521726D01*
X849584Y521443D01*
X849287Y521167D01*
X848984Y520898D01*
X848674Y520638D01*
X848357Y520384D01*
X848035Y520139D01*
X847707Y519902D01*
X847372Y519672D01*
X847033Y519451D01*
X846688Y519239D01*
X846338Y519035D01*
X845983Y518839D01*
X845623Y518653D01*
X845259Y518475D01*
X844891Y518306D01*
X844518Y518147D01*
X844142Y517996D01*
X843762Y517855D01*
X843379Y517723D01*
X842993Y517601D01*
X842603Y517488D01*
X842212Y517385D01*
X841817Y517291D01*
X841421Y517207D01*
X841023Y517133D01*
X840623Y517069D01*
X840221Y517014D01*
X839818Y516970D01*
X839415Y516935D01*
X839010Y516910D01*
X838605Y516895D01*
X838200Y516890D01*
X837795Y516895D01*
X837390Y516910D01*
X836985Y516935D01*
X836582Y516970D01*
X836179Y517014D01*
X835777Y517069D01*
X835377Y517133D01*
X834979Y517207D01*
X834583Y517291D01*
X834188Y517385D01*
X833797Y517488D01*
X833407Y517601D01*
X833021Y517723D01*
X832638Y517855D01*
X832258Y517996D01*
X831882Y518147D01*
X831509Y518306D01*
X831141Y518475D01*
X830777Y518653D01*
X830417Y518839D01*
X830062Y519035D01*
X829712Y519239D01*
X829367Y519451D01*
X829028Y519672D01*
X828693Y519902D01*
X828365Y520139D01*
X828043Y520384D01*
X827726Y520638D01*
X827416Y520898D01*
X827113Y521167D01*
X826816Y521443D01*
X826526Y521726D01*
X826243Y522016D01*
X825967Y522313D01*
X825698Y522616D01*
X825438Y522926D01*
X825184Y523243D01*
X824939Y523565D01*
X824702Y523893D01*
X824472Y524228D01*
X824251Y524567D01*
X824039Y524912D01*
X823835Y525262D01*
X823639Y525617D01*
X823453Y525977D01*
X823275Y526341D01*
X823106Y526709D01*
X822947Y527082D01*
X822796Y527458D01*
X822655Y527838D01*
X822523Y528221D01*
X822401Y528607D01*
X822288Y528997D01*
X822185Y529388D01*
X822091Y529783D01*
X822007Y530179D01*
X821933Y530577D01*
X821869Y530977D01*
X821814Y531379D01*
X821770Y531782D01*
X821735Y532185D01*
X821710Y532590D01*
X821695Y532995D01*
X821690Y533400D01*
X8890Y533400D02*
X8895Y533805D01*
X8910Y534210D01*
X8935Y534615D01*
X8970Y535018D01*
X9014Y535421D01*
X9069Y535823D01*
X9133Y536223D01*
X9207Y536621D01*
X9291Y537017D01*
X9385Y537412D01*
X9488Y537803D01*
X9601Y538193D01*
X9723Y538579D01*
X9855Y538962D01*
X9996Y539342D01*
X10147Y539718D01*
X10306Y540091D01*
X10475Y540459D01*
X10653Y540823D01*
X10839Y541183D01*
X11035Y541538D01*
X11239Y541888D01*
X11451Y542233D01*
X11672Y542572D01*
X11902Y542907D01*
X12139Y543235D01*
X12384Y543557D01*
X12638Y543874D01*
X12898Y544184D01*
X13167Y544487D01*
X13443Y544784D01*
X13726Y545074D01*
X14016Y545357D01*
X14313Y545633D01*
X14616Y545902D01*
X14926Y546162D01*
X15243Y546416D01*
X15565Y546661D01*
X15893Y546898D01*
X16228Y547128D01*
X16567Y547349D01*
X16912Y547561D01*
X17262Y547765D01*
X17617Y547961D01*
X17977Y548147D01*
X18341Y548325D01*
X18709Y548494D01*
X19082Y548653D01*
X19458Y548804D01*
X19838Y548945D01*
X20221Y549077D01*
X20607Y549199D01*
X20997Y549312D01*
X21388Y549415D01*
X21783Y549509D01*
X22179Y549593D01*
X22577Y549667D01*
X22977Y549731D01*
X23379Y549786D01*
X23782Y549830D01*
X24185Y549865D01*
X24590Y549890D01*
X24995Y549905D01*
X25400Y549910D01*
X25805Y549905D01*
X26210Y549890D01*
X26615Y549865D01*
X27018Y549830D01*
X27421Y549786D01*
X27823Y549731D01*
X28223Y549667D01*
X28621Y549593D01*
X29017Y549509D01*
X29412Y549415D01*
X29803Y549312D01*
X30193Y549199D01*
X30579Y549077D01*
X30962Y548945D01*
X31342Y548804D01*
X31718Y548653D01*
X32091Y548494D01*
X32459Y548325D01*
X32823Y548147D01*
X33183Y547961D01*
X33538Y547765D01*
X33888Y547561D01*
X34233Y547349D01*
X34572Y547128D01*
X34907Y546898D01*
X35235Y546661D01*
X35557Y546416D01*
X35874Y546162D01*
X36184Y545902D01*
X36487Y545633D01*
X36784Y545357D01*
X37074Y545074D01*
X37357Y544784D01*
X37633Y544487D01*
X37902Y544184D01*
X38162Y543874D01*
X38416Y543557D01*
X38661Y543235D01*
X38898Y542907D01*
X39128Y542572D01*
X39349Y542233D01*
X39561Y541888D01*
X39765Y541538D01*
X39961Y541183D01*
X40147Y540823D01*
X40325Y540459D01*
X40494Y540091D01*
X40653Y539718D01*
X40804Y539342D01*
X40945Y538962D01*
X41077Y538579D01*
X41199Y538193D01*
X41312Y537803D01*
X41415Y537412D01*
X41509Y537017D01*
X41593Y536621D01*
X41667Y536223D01*
X41731Y535823D01*
X41786Y535421D01*
X41830Y535018D01*
X41865Y534615D01*
X41890Y534210D01*
X41905Y533805D01*
X41910Y533400D01*
X41905Y532995D01*
X41890Y532590D01*
X41865Y532185D01*
X41830Y531782D01*
X41786Y531379D01*
X41731Y530977D01*
X41667Y530577D01*
X41593Y530179D01*
X41509Y529783D01*
X41415Y529388D01*
X41312Y528997D01*
X41199Y528607D01*
X41077Y528221D01*
X40945Y527838D01*
X40804Y527458D01*
X40653Y527082D01*
X40494Y526709D01*
X40325Y526341D01*
X40147Y525977D01*
X39961Y525617D01*
X39765Y525262D01*
X39561Y524912D01*
X39349Y524567D01*
X39128Y524228D01*
X38898Y523893D01*
X38661Y523565D01*
X38416Y523243D01*
X38162Y522926D01*
X37902Y522616D01*
X37633Y522313D01*
X37357Y522016D01*
X37074Y521726D01*
X36784Y521443D01*
X36487Y521167D01*
X36184Y520898D01*
X35874Y520638D01*
X35557Y520384D01*
X35235Y520139D01*
X34907Y519902D01*
X34572Y519672D01*
X34233Y519451D01*
X33888Y519239D01*
X33538Y519035D01*
X33183Y518839D01*
X32823Y518653D01*
X32459Y518475D01*
X32091Y518306D01*
X31718Y518147D01*
X31342Y517996D01*
X30962Y517855D01*
X30579Y517723D01*
X30193Y517601D01*
X29803Y517488D01*
X29412Y517385D01*
X29017Y517291D01*
X28621Y517207D01*
X28223Y517133D01*
X27823Y517069D01*
X27421Y517014D01*
X27018Y516970D01*
X26615Y516935D01*
X26210Y516910D01*
X25805Y516895D01*
X25400Y516890D01*
X24995Y516895D01*
X24590Y516910D01*
X24185Y516935D01*
X23782Y516970D01*
X23379Y517014D01*
X22977Y517069D01*
X22577Y517133D01*
X22179Y517207D01*
X21783Y517291D01*
X21388Y517385D01*
X20997Y517488D01*
X20607Y517601D01*
X20221Y517723D01*
X19838Y517855D01*
X19458Y517996D01*
X19082Y518147D01*
X18709Y518306D01*
X18341Y518475D01*
X17977Y518653D01*
X17617Y518839D01*
X17262Y519035D01*
X16912Y519239D01*
X16567Y519451D01*
X16228Y519672D01*
X15893Y519902D01*
X15565Y520139D01*
X15243Y520384D01*
X14926Y520638D01*
X14616Y520898D01*
X14313Y521167D01*
X14016Y521443D01*
X13726Y521726D01*
X13443Y522016D01*
X13167Y522313D01*
X12898Y522616D01*
X12638Y522926D01*
X12384Y523243D01*
X12139Y523565D01*
X11902Y523893D01*
X11672Y524228D01*
X11451Y524567D01*
X11239Y524912D01*
X11035Y525262D01*
X10839Y525617D01*
X10653Y525977D01*
X10475Y526341D01*
X10306Y526709D01*
X10147Y527082D01*
X9996Y527458D01*
X9855Y527838D01*
X9723Y528221D01*
X9601Y528607D01*
X9488Y528997D01*
X9385Y529388D01*
X9291Y529783D01*
X9207Y530179D01*
X9133Y530577D01*
X9069Y530977D01*
X9014Y531379D01*
X8970Y531782D01*
X8935Y532185D01*
X8910Y532590D01*
X8895Y532995D01*
X8890Y533400D01*
X821690Y25400D02*
X821695Y25805D01*
X821710Y26210D01*
X821735Y26615D01*
X821770Y27018D01*
X821814Y27421D01*
X821869Y27823D01*
X821933Y28223D01*
X822007Y28621D01*
X822091Y29017D01*
X822185Y29412D01*
X822288Y29803D01*
X822401Y30193D01*
X822523Y30579D01*
X822655Y30962D01*
X822796Y31342D01*
X822947Y31718D01*
X823106Y32091D01*
X823275Y32459D01*
X823453Y32823D01*
X823639Y33183D01*
X823835Y33538D01*
X824039Y33888D01*
X824251Y34233D01*
X824472Y34572D01*
X824702Y34907D01*
X824939Y35235D01*
X825184Y35557D01*
X825438Y35874D01*
X825698Y36184D01*
X825967Y36487D01*
X826243Y36784D01*
X826526Y37074D01*
X826816Y37357D01*
X827113Y37633D01*
X827416Y37902D01*
X827726Y38162D01*
X828043Y38416D01*
X828365Y38661D01*
X828693Y38898D01*
X829028Y39128D01*
X829367Y39349D01*
X829712Y39561D01*
X830062Y39765D01*
X830417Y39961D01*
X830777Y40147D01*
X831141Y40325D01*
X831509Y40494D01*
X831882Y40653D01*
X832258Y40804D01*
X832638Y40945D01*
X833021Y41077D01*
X833407Y41199D01*
X833797Y41312D01*
X834188Y41415D01*
X834583Y41509D01*
X834979Y41593D01*
X835377Y41667D01*
X835777Y41731D01*
X836179Y41786D01*
X836582Y41830D01*
X836985Y41865D01*
X837390Y41890D01*
X837795Y41905D01*
X838200Y41910D01*
X838605Y41905D01*
X839010Y41890D01*
X839415Y41865D01*
X839818Y41830D01*
X840221Y41786D01*
X840623Y41731D01*
X841023Y41667D01*
X841421Y41593D01*
X841817Y41509D01*
X842212Y41415D01*
X842603Y41312D01*
X842993Y41199D01*
X843379Y41077D01*
X843762Y40945D01*
X844142Y40804D01*
X844518Y40653D01*
X844891Y40494D01*
X845259Y40325D01*
X845623Y40147D01*
X845983Y39961D01*
X846338Y39765D01*
X846688Y39561D01*
X847033Y39349D01*
X847372Y39128D01*
X847707Y38898D01*
X848035Y38661D01*
X848357Y38416D01*
X848674Y38162D01*
X848984Y37902D01*
X849287Y37633D01*
X849584Y37357D01*
X849874Y37074D01*
X850157Y36784D01*
X850433Y36487D01*
X850702Y36184D01*
X850962Y35874D01*
X851216Y35557D01*
X851461Y35235D01*
X851698Y34907D01*
X851928Y34572D01*
X852149Y34233D01*
X852361Y33888D01*
X852565Y33538D01*
X852761Y33183D01*
X852947Y32823D01*
X853125Y32459D01*
X853294Y32091D01*
X853453Y31718D01*
X853604Y31342D01*
X853745Y30962D01*
X853877Y30579D01*
X853999Y30193D01*
X854112Y29803D01*
X854215Y29412D01*
X854309Y29017D01*
X854393Y28621D01*
X854467Y28223D01*
X854531Y27823D01*
X854586Y27421D01*
X854630Y27018D01*
X854665Y26615D01*
X854690Y26210D01*
X854705Y25805D01*
X854710Y25400D01*
X854705Y24995D01*
X854690Y24590D01*
X854665Y24185D01*
X854630Y23782D01*
X854586Y23379D01*
X854531Y22977D01*
X854467Y22577D01*
X854393Y22179D01*
X854309Y21783D01*
X854215Y21388D01*
X854112Y20997D01*
X853999Y20607D01*
X853877Y20221D01*
X853745Y19838D01*
X853604Y19458D01*
X853453Y19082D01*
X853294Y18709D01*
X853125Y18341D01*
X852947Y17977D01*
X852761Y17617D01*
X852565Y17262D01*
X852361Y16912D01*
X852149Y16567D01*
X851928Y16228D01*
X851698Y15893D01*
X851461Y15565D01*
X851216Y15243D01*
X850962Y14926D01*
X850702Y14616D01*
X850433Y14313D01*
X850157Y14016D01*
X849874Y13726D01*
X849584Y13443D01*
X849287Y13167D01*
X848984Y12898D01*
X848674Y12638D01*
X848357Y12384D01*
X848035Y12139D01*
X847707Y11902D01*
X847372Y11672D01*
X847033Y11451D01*
X846688Y11239D01*
X846338Y11035D01*
X845983Y10839D01*
X845623Y10653D01*
X845259Y10475D01*
X844891Y10306D01*
X844518Y10147D01*
X844142Y9996D01*
X843762Y9855D01*
X843379Y9723D01*
X842993Y9601D01*
X842603Y9488D01*
X842212Y9385D01*
X841817Y9291D01*
X841421Y9207D01*
X841023Y9133D01*
X840623Y9069D01*
X840221Y9014D01*
X839818Y8970D01*
X839415Y8935D01*
X839010Y8910D01*
X838605Y8895D01*
X838200Y8890D01*
X837795Y8895D01*
X837390Y8910D01*
X836985Y8935D01*
X836582Y8970D01*
X836179Y9014D01*
X835777Y9069D01*
X835377Y9133D01*
X834979Y9207D01*
X834583Y9291D01*
X834188Y9385D01*
X833797Y9488D01*
X833407Y9601D01*
X833021Y9723D01*
X832638Y9855D01*
X832258Y9996D01*
X831882Y10147D01*
X831509Y10306D01*
X831141Y10475D01*
X830777Y10653D01*
X830417Y10839D01*
X830062Y11035D01*
X829712Y11239D01*
X829367Y11451D01*
X829028Y11672D01*
X828693Y11902D01*
X828365Y12139D01*
X828043Y12384D01*
X827726Y12638D01*
X827416Y12898D01*
X827113Y13167D01*
X826816Y13443D01*
X826526Y13726D01*
X826243Y14016D01*
X825967Y14313D01*
X825698Y14616D01*
X825438Y14926D01*
X825184Y15243D01*
X824939Y15565D01*
X824702Y15893D01*
X824472Y16228D01*
X824251Y16567D01*
X824039Y16912D01*
X823835Y17262D01*
X823639Y17617D01*
X823453Y17977D01*
X823275Y18341D01*
X823106Y18709D01*
X822947Y19082D01*
X822796Y19458D01*
X822655Y19838D01*
X822523Y20221D01*
X822401Y20607D01*
X822288Y20997D01*
X822185Y21388D01*
X822091Y21783D01*
X822007Y22179D01*
X821933Y22577D01*
X821869Y22977D01*
X821814Y23379D01*
X821770Y23782D01*
X821735Y24185D01*
X821710Y24590D01*
X821695Y24995D01*
X821690Y25400D01*
X8890Y25400D02*
X8895Y25805D01*
X8910Y26210D01*
X8935Y26615D01*
X8970Y27018D01*
X9014Y27421D01*
X9069Y27823D01*
X9133Y28223D01*
X9207Y28621D01*
X9291Y29017D01*
X9385Y29412D01*
X9488Y29803D01*
X9601Y30193D01*
X9723Y30579D01*
X9855Y30962D01*
X9996Y31342D01*
X10147Y31718D01*
X10306Y32091D01*
X10475Y32459D01*
X10653Y32823D01*
X10839Y33183D01*
X11035Y33538D01*
X11239Y33888D01*
X11451Y34233D01*
X11672Y34572D01*
X11902Y34907D01*
X12139Y35235D01*
X12384Y35557D01*
X12638Y35874D01*
X12898Y36184D01*
X13167Y36487D01*
X13443Y36784D01*
X13726Y37074D01*
X14016Y37357D01*
X14313Y37633D01*
X14616Y37902D01*
X14926Y38162D01*
X15243Y38416D01*
X15565Y38661D01*
X15893Y38898D01*
X16228Y39128D01*
X16567Y39349D01*
X16912Y39561D01*
X17262Y39765D01*
X17617Y39961D01*
X17977Y40147D01*
X18341Y40325D01*
X18709Y40494D01*
X19082Y40653D01*
X19458Y40804D01*
X19838Y40945D01*
X20221Y41077D01*
X20607Y41199D01*
X20997Y41312D01*
X21388Y41415D01*
X21783Y41509D01*
X22179Y41593D01*
X22577Y41667D01*
X22977Y41731D01*
X23379Y41786D01*
X23782Y41830D01*
X24185Y41865D01*
X24590Y41890D01*
X24995Y41905D01*
X25400Y41910D01*
X25805Y41905D01*
X26210Y41890D01*
X26615Y41865D01*
X27018Y41830D01*
X27421Y41786D01*
X27823Y41731D01*
X28223Y41667D01*
X28621Y41593D01*
X29017Y41509D01*
X29412Y41415D01*
X29803Y41312D01*
X30193Y41199D01*
X30579Y41077D01*
X30962Y40945D01*
X31342Y40804D01*
X31718Y40653D01*
X32091Y40494D01*
X32459Y40325D01*
X32823Y40147D01*
X33183Y39961D01*
X33538Y39765D01*
X33888Y39561D01*
X34233Y39349D01*
X34572Y39128D01*
X34907Y38898D01*
X35235Y38661D01*
X35557Y38416D01*
X35874Y38162D01*
X36184Y37902D01*
X36487Y37633D01*
X36784Y37357D01*
X37074Y37074D01*
X37357Y36784D01*
X37633Y36487D01*
X37902Y36184D01*
X38162Y35874D01*
X38416Y35557D01*
X38661Y35235D01*
X38898Y34907D01*
X39128Y34572D01*
X39349Y34233D01*
X39561Y33888D01*
X39765Y33538D01*
X39961Y33183D01*
X40147Y32823D01*
X40325Y32459D01*
X40494Y32091D01*
X40653Y31718D01*
X40804Y31342D01*
X40945Y30962D01*
X41077Y30579D01*
X41199Y30193D01*
X41312Y29803D01*
X41415Y29412D01*
X41509Y29017D01*
X41593Y28621D01*
X41667Y28223D01*
X41731Y27823D01*
X41786Y27421D01*
X41830Y27018D01*
X41865Y26615D01*
X41890Y26210D01*
X41905Y25805D01*
X41910Y25400D01*
X41905Y24995D01*
X41890Y24590D01*
X41865Y24185D01*
X41830Y23782D01*
X41786Y23379D01*
X41731Y22977D01*
X41667Y22577D01*
X41593Y22179D01*
X41509Y21783D01*
X41415Y21388D01*
X41312Y20997D01*
X41199Y20607D01*
X41077Y20221D01*
X40945Y19838D01*
X40804Y19458D01*
X40653Y19082D01*
X40494Y18709D01*
X40325Y18341D01*
X40147Y17977D01*
X39961Y17617D01*
X39765Y17262D01*
X39561Y16912D01*
X39349Y16567D01*
X39128Y16228D01*
X38898Y15893D01*
X38661Y15565D01*
X38416Y15243D01*
X38162Y14926D01*
X37902Y14616D01*
X37633Y14313D01*
X37357Y14016D01*
X37074Y13726D01*
X36784Y13443D01*
X36487Y13167D01*
X36184Y12898D01*
X35874Y12638D01*
X35557Y12384D01*
X35235Y12139D01*
X34907Y11902D01*
X34572Y11672D01*
X34233Y11451D01*
X33888Y11239D01*
X33538Y11035D01*
X33183Y10839D01*
X32823Y10653D01*
X32459Y10475D01*
X32091Y10306D01*
X31718Y10147D01*
X31342Y9996D01*
X30962Y9855D01*
X30579Y9723D01*
X30193Y9601D01*
X29803Y9488D01*
X29412Y9385D01*
X29017Y9291D01*
X28621Y9207D01*
X28223Y9133D01*
X27823Y9069D01*
X27421Y9014D01*
X27018Y8970D01*
X26615Y8935D01*
X26210Y8910D01*
X25805Y8895D01*
X25400Y8890D01*
X24995Y8895D01*
X24590Y8910D01*
X24185Y8935D01*
X23782Y8970D01*
X23379Y9014D01*
X22977Y9069D01*
X22577Y9133D01*
X22179Y9207D01*
X21783Y9291D01*
X21388Y9385D01*
X20997Y9488D01*
X20607Y9601D01*
X20221Y9723D01*
X19838Y9855D01*
X19458Y9996D01*
X19082Y10147D01*
X18709Y10306D01*
X18341Y10475D01*
X17977Y10653D01*
X17617Y10839D01*
X17262Y11035D01*
X16912Y11239D01*
X16567Y11451D01*
X16228Y11672D01*
X15893Y11902D01*
X15565Y12139D01*
X15243Y12384D01*
X14926Y12638D01*
X14616Y12898D01*
X14313Y13167D01*
X14016Y13443D01*
X13726Y13726D01*
X13443Y14016D01*
X13167Y14313D01*
X12898Y14616D01*
X12638Y14926D01*
X12384Y15243D01*
X12139Y15565D01*
X11902Y15893D01*
X11672Y16228D01*
X11451Y16567D01*
X11239Y16912D01*
X11035Y17262D01*
X10839Y17617D01*
X10653Y17977D01*
X10475Y18341D01*
X10306Y18709D01*
X10147Y19082D01*
X9996Y19458D01*
X9855Y19838D01*
X9723Y20221D01*
X9601Y20607D01*
X9488Y20997D01*
X9385Y21388D01*
X9291Y21783D01*
X9207Y22179D01*
X9133Y22577D01*
X9069Y22977D01*
X9014Y23379D01*
X8970Y23782D01*
X8935Y24185D01*
X8910Y24590D01*
X8895Y24995D01*
X8890Y25400D01*
X350100Y179400D02*
X350102Y179548D01*
X350108Y179696D01*
X350118Y179844D01*
X350132Y179992D01*
X350150Y180139D01*
X350172Y180286D01*
X350198Y180432D01*
X350227Y180577D01*
X350261Y180722D01*
X350299Y180865D01*
X350340Y181008D01*
X350385Y181149D01*
X350435Y181289D01*
X350487Y181427D01*
X350544Y181565D01*
X350604Y181700D01*
X350668Y181834D01*
X350735Y181966D01*
X350806Y182096D01*
X350881Y182225D01*
X350959Y182351D01*
X351040Y182475D01*
X351124Y182597D01*
X351212Y182716D01*
X351303Y182833D01*
X351397Y182948D01*
X351495Y183060D01*
X351595Y183169D01*
X351698Y183276D01*
X351804Y183380D01*
X351912Y183481D01*
X352024Y183579D01*
X352138Y183674D01*
X352254Y183765D01*
X352373Y183854D01*
X352494Y183939D01*
X352618Y184021D01*
X352744Y184100D01*
X352871Y184175D01*
X353001Y184247D01*
X353133Y184316D01*
X353266Y184380D01*
X353401Y184441D01*
X353538Y184499D01*
X353676Y184553D01*
X353816Y184603D01*
X353957Y184649D01*
X354099Y184691D01*
X354242Y184730D01*
X354386Y184764D01*
X354532Y184795D01*
X354677Y184822D01*
X354824Y184845D01*
X354971Y184864D01*
X355119Y184879D01*
X355266Y184890D01*
X355415Y184897D01*
X355563Y184900D01*
X355711Y184899D01*
X355859Y184894D01*
X356007Y184885D01*
X356155Y184872D01*
X356303Y184855D01*
X356449Y184834D01*
X356596Y184809D01*
X356741Y184780D01*
X356886Y184748D01*
X357029Y184711D01*
X357172Y184671D01*
X357314Y184626D01*
X357454Y184578D01*
X357593Y184526D01*
X357730Y184471D01*
X357866Y184411D01*
X358001Y184348D01*
X358133Y184282D01*
X358264Y184212D01*
X358393Y184138D01*
X358519Y184061D01*
X358644Y183981D01*
X358766Y183897D01*
X358887Y183810D01*
X359004Y183720D01*
X359120Y183626D01*
X359232Y183530D01*
X359342Y183431D01*
X359450Y183328D01*
X359554Y183223D01*
X359656Y183115D01*
X359754Y183004D01*
X359850Y182891D01*
X359943Y182775D01*
X360032Y182657D01*
X360118Y182536D01*
X360201Y182413D01*
X360281Y182288D01*
X360357Y182161D01*
X360430Y182031D01*
X360499Y181900D01*
X360564Y181767D01*
X360627Y181633D01*
X360685Y181496D01*
X360740Y181358D01*
X360790Y181219D01*
X360838Y181078D01*
X360881Y180937D01*
X360921Y180794D01*
X360956Y180650D01*
X360988Y180505D01*
X361016Y180359D01*
X361040Y180213D01*
X361060Y180066D01*
X361076Y179918D01*
X361088Y179771D01*
X361096Y179622D01*
X361100Y179474D01*
X361100Y179326D01*
X361096Y179178D01*
X361088Y179029D01*
X361076Y178882D01*
X361060Y178734D01*
X361040Y178587D01*
X361016Y178441D01*
X360988Y178295D01*
X360956Y178150D01*
X360921Y178006D01*
X360881Y177863D01*
X360838Y177722D01*
X360790Y177581D01*
X360740Y177442D01*
X360685Y177304D01*
X360627Y177167D01*
X360564Y177033D01*
X360499Y176900D01*
X360430Y176769D01*
X360357Y176639D01*
X360281Y176512D01*
X360201Y176387D01*
X360118Y176264D01*
X360032Y176143D01*
X359943Y176025D01*
X359850Y175909D01*
X359754Y175796D01*
X359656Y175685D01*
X359554Y175577D01*
X359450Y175472D01*
X359342Y175369D01*
X359232Y175270D01*
X359120Y175174D01*
X359004Y175080D01*
X358887Y174990D01*
X358766Y174903D01*
X358644Y174819D01*
X358519Y174739D01*
X358393Y174662D01*
X358264Y174588D01*
X358133Y174518D01*
X358001Y174452D01*
X357866Y174389D01*
X357730Y174329D01*
X357593Y174274D01*
X357454Y174222D01*
X357314Y174174D01*
X357172Y174129D01*
X357029Y174089D01*
X356886Y174052D01*
X356741Y174020D01*
X356596Y173991D01*
X356449Y173966D01*
X356303Y173945D01*
X356155Y173928D01*
X356007Y173915D01*
X355859Y173906D01*
X355711Y173901D01*
X355563Y173900D01*
X355415Y173903D01*
X355266Y173910D01*
X355119Y173921D01*
X354971Y173936D01*
X354824Y173955D01*
X354677Y173978D01*
X354532Y174005D01*
X354386Y174036D01*
X354242Y174070D01*
X354099Y174109D01*
X353957Y174151D01*
X353816Y174197D01*
X353676Y174247D01*
X353538Y174301D01*
X353401Y174359D01*
X353266Y174420D01*
X353133Y174484D01*
X353001Y174553D01*
X352871Y174625D01*
X352744Y174700D01*
X352618Y174779D01*
X352494Y174861D01*
X352373Y174946D01*
X352254Y175035D01*
X352138Y175126D01*
X352024Y175221D01*
X351912Y175319D01*
X351804Y175420D01*
X351698Y175524D01*
X351595Y175631D01*
X351495Y175740D01*
X351397Y175852D01*
X351303Y175967D01*
X351212Y176084D01*
X351124Y176203D01*
X351040Y176325D01*
X350959Y176449D01*
X350881Y176575D01*
X350806Y176704D01*
X350735Y176834D01*
X350668Y176966D01*
X350604Y177100D01*
X350544Y177235D01*
X350487Y177373D01*
X350435Y177511D01*
X350385Y177651D01*
X350340Y177792D01*
X350299Y177935D01*
X350261Y178078D01*
X350227Y178223D01*
X350198Y178368D01*
X350172Y178514D01*
X350150Y178661D01*
X350132Y178808D01*
X350118Y178956D01*
X350108Y179104D01*
X350102Y179252D01*
X350100Y179400D01*
X347600Y379400D02*
X347602Y379596D01*
X347610Y379793D01*
X347622Y379989D01*
X347639Y380184D01*
X347660Y380379D01*
X347687Y380574D01*
X347718Y380768D01*
X347754Y380961D01*
X347794Y381153D01*
X347840Y381344D01*
X347890Y381534D01*
X347944Y381722D01*
X348004Y381909D01*
X348068Y382095D01*
X348136Y382279D01*
X348209Y382461D01*
X348286Y382642D01*
X348368Y382820D01*
X348454Y382997D01*
X348545Y383171D01*
X348639Y383343D01*
X348738Y383513D01*
X348841Y383680D01*
X348948Y383845D01*
X349059Y384006D01*
X349174Y384166D01*
X349293Y384322D01*
X349416Y384475D01*
X349542Y384625D01*
X349672Y384772D01*
X349806Y384916D01*
X349943Y385057D01*
X350084Y385194D01*
X350228Y385328D01*
X350375Y385458D01*
X350525Y385584D01*
X350678Y385707D01*
X350834Y385826D01*
X350994Y385941D01*
X351155Y386052D01*
X351320Y386159D01*
X351487Y386262D01*
X351657Y386361D01*
X351829Y386455D01*
X352003Y386546D01*
X352180Y386632D01*
X352358Y386714D01*
X352539Y386791D01*
X352721Y386864D01*
X352905Y386932D01*
X353091Y386996D01*
X353278Y387056D01*
X353466Y387110D01*
X353656Y387160D01*
X353847Y387206D01*
X354039Y387246D01*
X354232Y387282D01*
X354426Y387313D01*
X354621Y387340D01*
X354816Y387361D01*
X355011Y387378D01*
X355207Y387390D01*
X355404Y387398D01*
X355600Y387400D01*
X355796Y387398D01*
X355993Y387390D01*
X356189Y387378D01*
X356384Y387361D01*
X356579Y387340D01*
X356774Y387313D01*
X356968Y387282D01*
X357161Y387246D01*
X357353Y387206D01*
X357544Y387160D01*
X357734Y387110D01*
X357922Y387056D01*
X358109Y386996D01*
X358295Y386932D01*
X358479Y386864D01*
X358661Y386791D01*
X358842Y386714D01*
X359020Y386632D01*
X359197Y386546D01*
X359371Y386455D01*
X359543Y386361D01*
X359713Y386262D01*
X359880Y386159D01*
X360045Y386052D01*
X360206Y385941D01*
X360366Y385826D01*
X360522Y385707D01*
X360675Y385584D01*
X360825Y385458D01*
X360972Y385328D01*
X361116Y385194D01*
X361257Y385057D01*
X361394Y384916D01*
X361528Y384772D01*
X361658Y384625D01*
X361784Y384475D01*
X361907Y384322D01*
X362026Y384166D01*
X362141Y384006D01*
X362252Y383845D01*
X362359Y383680D01*
X362462Y383513D01*
X362561Y383343D01*
X362655Y383171D01*
X362746Y382997D01*
X362832Y382820D01*
X362914Y382642D01*
X362991Y382461D01*
X363064Y382279D01*
X363132Y382095D01*
X363196Y381909D01*
X363256Y381722D01*
X363310Y381534D01*
X363360Y381344D01*
X363406Y381153D01*
X363446Y380961D01*
X363482Y380768D01*
X363513Y380574D01*
X363540Y380379D01*
X363561Y380184D01*
X363578Y379989D01*
X363590Y379793D01*
X363598Y379596D01*
X363600Y379400D01*
X363598Y379204D01*
X363590Y379007D01*
X363578Y378811D01*
X363561Y378616D01*
X363540Y378421D01*
X363513Y378226D01*
X363482Y378032D01*
X363446Y377839D01*
X363406Y377647D01*
X363360Y377456D01*
X363310Y377266D01*
X363256Y377078D01*
X363196Y376891D01*
X363132Y376705D01*
X363064Y376521D01*
X362991Y376339D01*
X362914Y376158D01*
X362832Y375980D01*
X362746Y375803D01*
X362655Y375629D01*
X362561Y375457D01*
X362462Y375287D01*
X362359Y375120D01*
X362252Y374955D01*
X362141Y374794D01*
X362026Y374634D01*
X361907Y374478D01*
X361784Y374325D01*
X361658Y374175D01*
X361528Y374028D01*
X361394Y373884D01*
X361257Y373743D01*
X361116Y373606D01*
X360972Y373472D01*
X360825Y373342D01*
X360675Y373216D01*
X360522Y373093D01*
X360366Y372974D01*
X360206Y372859D01*
X360045Y372748D01*
X359880Y372641D01*
X359713Y372538D01*
X359543Y372439D01*
X359371Y372345D01*
X359197Y372254D01*
X359020Y372168D01*
X358842Y372086D01*
X358661Y372009D01*
X358479Y371936D01*
X358295Y371868D01*
X358109Y371804D01*
X357922Y371744D01*
X357734Y371690D01*
X357544Y371640D01*
X357353Y371594D01*
X357161Y371554D01*
X356968Y371518D01*
X356774Y371487D01*
X356579Y371460D01*
X356384Y371439D01*
X356189Y371422D01*
X355993Y371410D01*
X355796Y371402D01*
X355600Y371400D01*
X355404Y371402D01*
X355207Y371410D01*
X355011Y371422D01*
X354816Y371439D01*
X354621Y371460D01*
X354426Y371487D01*
X354232Y371518D01*
X354039Y371554D01*
X353847Y371594D01*
X353656Y371640D01*
X353466Y371690D01*
X353278Y371744D01*
X353091Y371804D01*
X352905Y371868D01*
X352721Y371936D01*
X352539Y372009D01*
X352358Y372086D01*
X352180Y372168D01*
X352003Y372254D01*
X351829Y372345D01*
X351657Y372439D01*
X351487Y372538D01*
X351320Y372641D01*
X351155Y372748D01*
X350994Y372859D01*
X350834Y372974D01*
X350678Y373093D01*
X350525Y373216D01*
X350375Y373342D01*
X350228Y373472D01*
X350084Y373606D01*
X349943Y373743D01*
X349806Y373884D01*
X349672Y374028D01*
X349542Y374175D01*
X349416Y374325D01*
X349293Y374478D01*
X349174Y374634D01*
X349059Y374794D01*
X348948Y374955D01*
X348841Y375120D01*
X348738Y375287D01*
X348639Y375457D01*
X348545Y375629D01*
X348454Y375803D01*
X348368Y375980D01*
X348286Y376158D01*
X348209Y376339D01*
X348136Y376521D01*
X348068Y376705D01*
X348004Y376891D01*
X347944Y377078D01*
X347890Y377266D01*
X347840Y377456D01*
X347794Y377647D01*
X347754Y377839D01*
X347718Y378032D01*
X347687Y378226D01*
X347660Y378421D01*
X347639Y378616D01*
X347622Y378811D01*
X347610Y379007D01*
X347602Y379204D01*
X347600Y379400D01*
X618490Y228600D02*
X618495Y229005D01*
X618510Y229410D01*
X618535Y229815D01*
X618570Y230218D01*
X618614Y230621D01*
X618669Y231023D01*
X618733Y231423D01*
X618807Y231821D01*
X618891Y232217D01*
X618985Y232612D01*
X619088Y233003D01*
X619201Y233393D01*
X619323Y233779D01*
X619455Y234162D01*
X619596Y234542D01*
X619747Y234918D01*
X619906Y235291D01*
X620075Y235659D01*
X620253Y236023D01*
X620439Y236383D01*
X620635Y236738D01*
X620839Y237088D01*
X621051Y237433D01*
X621272Y237772D01*
X621502Y238107D01*
X621739Y238435D01*
X621984Y238757D01*
X622238Y239074D01*
X622498Y239384D01*
X622767Y239687D01*
X623043Y239984D01*
X623326Y240274D01*
X623616Y240557D01*
X623913Y240833D01*
X624216Y241102D01*
X624526Y241362D01*
X624843Y241616D01*
X625165Y241861D01*
X625493Y242098D01*
X625828Y242328D01*
X626167Y242549D01*
X626512Y242761D01*
X626862Y242965D01*
X627217Y243161D01*
X627577Y243347D01*
X627941Y243525D01*
X628309Y243694D01*
X628682Y243853D01*
X629058Y244004D01*
X629438Y244145D01*
X629821Y244277D01*
X630207Y244399D01*
X630597Y244512D01*
X630988Y244615D01*
X631383Y244709D01*
X631779Y244793D01*
X632177Y244867D01*
X632577Y244931D01*
X632979Y244986D01*
X633382Y245030D01*
X633785Y245065D01*
X634190Y245090D01*
X634595Y245105D01*
X635000Y245110D01*
X635405Y245105D01*
X635810Y245090D01*
X636215Y245065D01*
X636618Y245030D01*
X637021Y244986D01*
X637423Y244931D01*
X637823Y244867D01*
X638221Y244793D01*
X638617Y244709D01*
X639012Y244615D01*
X639403Y244512D01*
X639793Y244399D01*
X640179Y244277D01*
X640562Y244145D01*
X640942Y244004D01*
X641318Y243853D01*
X641691Y243694D01*
X642059Y243525D01*
X642423Y243347D01*
X642783Y243161D01*
X643138Y242965D01*
X643488Y242761D01*
X643833Y242549D01*
X644172Y242328D01*
X644507Y242098D01*
X644835Y241861D01*
X645157Y241616D01*
X645474Y241362D01*
X645784Y241102D01*
X646087Y240833D01*
X646384Y240557D01*
X646674Y240274D01*
X646957Y239984D01*
X647233Y239687D01*
X647502Y239384D01*
X647762Y239074D01*
X648016Y238757D01*
X648261Y238435D01*
X648498Y238107D01*
X648728Y237772D01*
X648949Y237433D01*
X649161Y237088D01*
X649365Y236738D01*
X649561Y236383D01*
X649747Y236023D01*
X649925Y235659D01*
X650094Y235291D01*
X650253Y234918D01*
X650404Y234542D01*
X650545Y234162D01*
X650677Y233779D01*
X650799Y233393D01*
X650912Y233003D01*
X651015Y232612D01*
X651109Y232217D01*
X651193Y231821D01*
X651267Y231423D01*
X651331Y231023D01*
X651386Y230621D01*
X651430Y230218D01*
X651465Y229815D01*
X651490Y229410D01*
X651505Y229005D01*
X651510Y228600D01*
X651505Y228195D01*
X651490Y227790D01*
X651465Y227385D01*
X651430Y226982D01*
X651386Y226579D01*
X651331Y226177D01*
X651267Y225777D01*
X651193Y225379D01*
X651109Y224983D01*
X651015Y224588D01*
X650912Y224197D01*
X650799Y223807D01*
X650677Y223421D01*
X650545Y223038D01*
X650404Y222658D01*
X650253Y222282D01*
X650094Y221909D01*
X649925Y221541D01*
X649747Y221177D01*
X649561Y220817D01*
X649365Y220462D01*
X649161Y220112D01*
X648949Y219767D01*
X648728Y219428D01*
X648498Y219093D01*
X648261Y218765D01*
X648016Y218443D01*
X647762Y218126D01*
X647502Y217816D01*
X647233Y217513D01*
X646957Y217216D01*
X646674Y216926D01*
X646384Y216643D01*
X646087Y216367D01*
X645784Y216098D01*
X645474Y215838D01*
X645157Y215584D01*
X644835Y215339D01*
X644507Y215102D01*
X644172Y214872D01*
X643833Y214651D01*
X643488Y214439D01*
X643138Y214235D01*
X642783Y214039D01*
X642423Y213853D01*
X642059Y213675D01*
X641691Y213506D01*
X641318Y213347D01*
X640942Y213196D01*
X640562Y213055D01*
X640179Y212923D01*
X639793Y212801D01*
X639403Y212688D01*
X639012Y212585D01*
X638617Y212491D01*
X638221Y212407D01*
X637823Y212333D01*
X637423Y212269D01*
X637021Y212214D01*
X636618Y212170D01*
X636215Y212135D01*
X635810Y212110D01*
X635405Y212095D01*
X635000Y212090D01*
X634595Y212095D01*
X634190Y212110D01*
X633785Y212135D01*
X633382Y212170D01*
X632979Y212214D01*
X632577Y212269D01*
X632177Y212333D01*
X631779Y212407D01*
X631383Y212491D01*
X630988Y212585D01*
X630597Y212688D01*
X630207Y212801D01*
X629821Y212923D01*
X629438Y213055D01*
X629058Y213196D01*
X628682Y213347D01*
X628309Y213506D01*
X627941Y213675D01*
X627577Y213853D01*
X627217Y214039D01*
X626862Y214235D01*
X626512Y214439D01*
X626167Y214651D01*
X625828Y214872D01*
X625493Y215102D01*
X625165Y215339D01*
X624843Y215584D01*
X624526Y215838D01*
X624216Y216098D01*
X623913Y216367D01*
X623616Y216643D01*
X623326Y216926D01*
X623043Y217216D01*
X622767Y217513D01*
X622498Y217816D01*
X622238Y218126D01*
X621984Y218443D01*
X621739Y218765D01*
X621502Y219093D01*
X621272Y219428D01*
X621051Y219767D01*
X620839Y220112D01*
X620635Y220462D01*
X620439Y220817D01*
X620253Y221177D01*
X620075Y221541D01*
X619906Y221909D01*
X619747Y222282D01*
X619596Y222658D01*
X619455Y223038D01*
X619323Y223421D01*
X619201Y223807D01*
X619088Y224197D01*
X618985Y224588D01*
X618891Y224983D01*
X618807Y225379D01*
X618733Y225777D01*
X618669Y226177D01*
X618614Y226579D01*
X618570Y226982D01*
X618535Y227385D01*
X618510Y227790D01*
X618495Y228195D01*
X618490Y228600D01*
X618490Y330200D02*
X618495Y330605D01*
X618510Y331010D01*
X618535Y331415D01*
X618570Y331818D01*
X618614Y332221D01*
X618669Y332623D01*
X618733Y333023D01*
X618807Y333421D01*
X618891Y333817D01*
X618985Y334212D01*
X619088Y334603D01*
X619201Y334993D01*
X619323Y335379D01*
X619455Y335762D01*
X619596Y336142D01*
X619747Y336518D01*
X619906Y336891D01*
X620075Y337259D01*
X620253Y337623D01*
X620439Y337983D01*
X620635Y338338D01*
X620839Y338688D01*
X621051Y339033D01*
X621272Y339372D01*
X621502Y339707D01*
X621739Y340035D01*
X621984Y340357D01*
X622238Y340674D01*
X622498Y340984D01*
X622767Y341287D01*
X623043Y341584D01*
X623326Y341874D01*
X623616Y342157D01*
X623913Y342433D01*
X624216Y342702D01*
X624526Y342962D01*
X624843Y343216D01*
X625165Y343461D01*
X625493Y343698D01*
X625828Y343928D01*
X626167Y344149D01*
X626512Y344361D01*
X626862Y344565D01*
X627217Y344761D01*
X627577Y344947D01*
X627941Y345125D01*
X628309Y345294D01*
X628682Y345453D01*
X629058Y345604D01*
X629438Y345745D01*
X629821Y345877D01*
X630207Y345999D01*
X630597Y346112D01*
X630988Y346215D01*
X631383Y346309D01*
X631779Y346393D01*
X632177Y346467D01*
X632577Y346531D01*
X632979Y346586D01*
X633382Y346630D01*
X633785Y346665D01*
X634190Y346690D01*
X634595Y346705D01*
X635000Y346710D01*
X635405Y346705D01*
X635810Y346690D01*
X636215Y346665D01*
X636618Y346630D01*
X637021Y346586D01*
X637423Y346531D01*
X637823Y346467D01*
X638221Y346393D01*
X638617Y346309D01*
X639012Y346215D01*
X639403Y346112D01*
X639793Y345999D01*
X640179Y345877D01*
X640562Y345745D01*
X640942Y345604D01*
X641318Y345453D01*
X641691Y345294D01*
X642059Y345125D01*
X642423Y344947D01*
X642783Y344761D01*
X643138Y344565D01*
X643488Y344361D01*
X643833Y344149D01*
X644172Y343928D01*
X644507Y343698D01*
X644835Y343461D01*
X645157Y343216D01*
X645474Y342962D01*
X645784Y342702D01*
X646087Y342433D01*
X646384Y342157D01*
X646674Y341874D01*
X646957Y341584D01*
X647233Y341287D01*
X647502Y340984D01*
X647762Y340674D01*
X648016Y340357D01*
X648261Y340035D01*
X648498Y339707D01*
X648728Y339372D01*
X648949Y339033D01*
X649161Y338688D01*
X649365Y338338D01*
X649561Y337983D01*
X649747Y337623D01*
X649925Y337259D01*
X650094Y336891D01*
X650253Y336518D01*
X650404Y336142D01*
X650545Y335762D01*
X650677Y335379D01*
X650799Y334993D01*
X650912Y334603D01*
X651015Y334212D01*
X651109Y333817D01*
X651193Y333421D01*
X651267Y333023D01*
X651331Y332623D01*
X651386Y332221D01*
X651430Y331818D01*
X651465Y331415D01*
X651490Y331010D01*
X651505Y330605D01*
X651510Y330200D01*
X651505Y329795D01*
X651490Y329390D01*
X651465Y328985D01*
X651430Y328582D01*
X651386Y328179D01*
X651331Y327777D01*
X651267Y327377D01*
X651193Y326979D01*
X651109Y326583D01*
X651015Y326188D01*
X650912Y325797D01*
X650799Y325407D01*
X650677Y325021D01*
X650545Y324638D01*
X650404Y324258D01*
X650253Y323882D01*
X650094Y323509D01*
X649925Y323141D01*
X649747Y322777D01*
X649561Y322417D01*
X649365Y322062D01*
X649161Y321712D01*
X648949Y321367D01*
X648728Y321028D01*
X648498Y320693D01*
X648261Y320365D01*
X648016Y320043D01*
X647762Y319726D01*
X647502Y319416D01*
X647233Y319113D01*
X646957Y318816D01*
X646674Y318526D01*
X646384Y318243D01*
X646087Y317967D01*
X645784Y317698D01*
X645474Y317438D01*
X645157Y317184D01*
X644835Y316939D01*
X644507Y316702D01*
X644172Y316472D01*
X643833Y316251D01*
X643488Y316039D01*
X643138Y315835D01*
X642783Y315639D01*
X642423Y315453D01*
X642059Y315275D01*
X641691Y315106D01*
X641318Y314947D01*
X640942Y314796D01*
X640562Y314655D01*
X640179Y314523D01*
X639793Y314401D01*
X639403Y314288D01*
X639012Y314185D01*
X638617Y314091D01*
X638221Y314007D01*
X637823Y313933D01*
X637423Y313869D01*
X637021Y313814D01*
X636618Y313770D01*
X636215Y313735D01*
X635810Y313710D01*
X635405Y313695D01*
X635000Y313690D01*
X634595Y313695D01*
X634190Y313710D01*
X633785Y313735D01*
X633382Y313770D01*
X632979Y313814D01*
X632577Y313869D01*
X632177Y313933D01*
X631779Y314007D01*
X631383Y314091D01*
X630988Y314185D01*
X630597Y314288D01*
X630207Y314401D01*
X629821Y314523D01*
X629438Y314655D01*
X629058Y314796D01*
X628682Y314947D01*
X628309Y315106D01*
X627941Y315275D01*
X627577Y315453D01*
X627217Y315639D01*
X626862Y315835D01*
X626512Y316039D01*
X626167Y316251D01*
X625828Y316472D01*
X625493Y316702D01*
X625165Y316939D01*
X624843Y317184D01*
X624526Y317438D01*
X624216Y317698D01*
X623913Y317967D01*
X623616Y318243D01*
X623326Y318526D01*
X623043Y318816D01*
X622767Y319113D01*
X622498Y319416D01*
X622238Y319726D01*
X621984Y320043D01*
X621739Y320365D01*
X621502Y320693D01*
X621272Y321028D01*
X621051Y321367D01*
X620839Y321712D01*
X620635Y322062D01*
X620439Y322417D01*
X620253Y322777D01*
X620075Y323141D01*
X619906Y323509D01*
X619747Y323882D01*
X619596Y324258D01*
X619455Y324638D01*
X619323Y325021D01*
X619201Y325407D01*
X619088Y325797D01*
X618985Y326188D01*
X618891Y326583D01*
X618807Y326979D01*
X618733Y327377D01*
X618669Y327777D01*
X618614Y328179D01*
X618570Y328582D01*
X618535Y328985D01*
X618510Y329390D01*
X618495Y329795D01*
X618490Y330200D01*
D13*
X0Y25400D02*
X97Y23186D01*
X386Y20989D01*
X865Y18826D01*
X1532Y16713D01*
X2380Y14666D01*
X3403Y12700D01*
X4594Y10831D01*
X5942Y9073D01*
X7440Y7440D01*
X9073Y5942D01*
X10831Y4594D01*
X12700Y3403D01*
X14666Y2380D01*
X16713Y1532D01*
X18826Y865D01*
X20989Y386D01*
X23186Y97D01*
X25400Y0D01*
X838200Y0D01*
X840414Y97D01*
X842611Y386D01*
X844774Y865D01*
X846887Y1532D01*
X848935Y2380D01*
X850900Y3403D01*
X852769Y4594D01*
X854527Y5942D01*
X856161Y7440D01*
X857658Y9073D01*
X859006Y10831D01*
X860197Y12700D01*
X861220Y14666D01*
X862068Y16713D01*
X862735Y18826D01*
X863214Y20989D01*
X863503Y23186D01*
X863600Y25400D01*
X863600Y533400D01*
X863503Y535614D01*
X863214Y537811D01*
X862735Y539974D01*
X862068Y542087D01*
X861220Y544135D01*
X860197Y546100D01*
X859006Y547969D01*
X857658Y549727D01*
X856161Y551361D01*
X854527Y552858D01*
X852769Y554206D01*
X850900Y555397D01*
X848935Y556420D01*
X846887Y557268D01*
X844774Y557935D01*
X842611Y558414D01*
X840414Y558703D01*
X838200Y558800D01*
X25400Y558800D01*
X23186Y558703D01*
X20989Y558414D01*
X18826Y557935D01*
X16713Y557268D01*
X14666Y556420D01*
X12700Y555397D01*
X10831Y554206D01*
X9073Y552858D01*
X7440Y551361D01*
X5942Y549727D01*
X4594Y547969D01*
X3403Y546100D01*
X2380Y544135D01*
X1532Y542087D01*
X865Y539974D01*
X386Y537811D01*
X97Y535614D01*
X0Y533400D01*
X0Y25400D01*
X48837Y203450D02*
X48415Y203506D01*
X48003Y203616D01*
X47609Y203779D01*
X47241Y203992D01*
X46903Y204251D01*
X46601Y204553D01*
X46342Y204891D01*
X46129Y205259D01*
X45966Y205653D01*
X45856Y206065D01*
X45800Y206487D01*
X45800Y206913D01*
X45856Y207335D01*
X45966Y207747D01*
X46129Y208141D01*
X46342Y208509D01*
X46601Y208847D01*
X46903Y209149D01*
X47241Y209408D01*
X47609Y209621D01*
X48003Y209784D01*
X48415Y209894D01*
X48837Y209950D01*
X49263Y209950D01*
X49685Y209894D01*
X50097Y209784D01*
X50491Y209621D01*
X50859Y209408D01*
X51197Y209149D01*
X51499Y208847D01*
X51758Y208509D01*
X51971Y208141D01*
X52134Y207747D01*
X52244Y207335D01*
X52300Y206913D01*
X52300Y206487D01*
X52244Y206065D01*
X52134Y205653D01*
X51971Y205259D01*
X51758Y204891D01*
X51499Y204553D01*
X51197Y204251D01*
X50859Y203992D01*
X50491Y203779D01*
X50097Y203616D01*
X49685Y203506D01*
X49263Y203450D01*
X48837Y203450D01*
X48837Y145650D02*
X48415Y145706D01*
X48003Y145816D01*
X47609Y145979D01*
X47241Y146192D01*
X46903Y146451D01*
X46601Y146753D01*
X46342Y147091D01*
X46129Y147459D01*
X45966Y147853D01*
X45856Y148265D01*
X45800Y148687D01*
X45800Y149113D01*
X45856Y149535D01*
X45966Y149947D01*
X46129Y150341D01*
X46342Y150709D01*
X46601Y151047D01*
X46903Y151349D01*
X47241Y151608D01*
X47609Y151821D01*
X48003Y151984D01*
X48415Y152094D01*
X48837Y152150D01*
X49263Y152150D01*
X49685Y152094D01*
X50097Y151984D01*
X50491Y151821D01*
X50859Y151608D01*
X51197Y151349D01*
X51499Y151047D01*
X51758Y150709D01*
X51971Y150341D01*
X52134Y149947D01*
X52244Y149535D01*
X52300Y149113D01*
X52300Y148687D01*
X52244Y148265D01*
X52134Y147853D01*
X51971Y147459D01*
X51758Y147091D01*
X51499Y146753D01*
X51197Y146451D01*
X50859Y146192D01*
X50491Y145979D01*
X50097Y145816D01*
X49685Y145706D01*
X49263Y145650D01*
X48837Y145650D01*
X854710Y532860D02*
X854639Y531781D01*
X854498Y530709D01*
X854287Y529649D01*
X854008Y528605D01*
X853660Y527581D01*
X853246Y526583D01*
X852768Y525613D01*
X852228Y524677D01*
X851627Y523778D01*
X850969Y522921D01*
X850257Y522108D01*
X849492Y521344D01*
X848679Y520631D01*
X847822Y519973D01*
X846923Y519372D01*
X845987Y518832D01*
X845017Y518354D01*
X844019Y517940D01*
X842995Y517592D01*
X841951Y517313D01*
X840891Y517102D01*
X839819Y516961D01*
X838740Y516890D01*
X837660Y516890D01*
X836581Y516961D01*
X835509Y517102D01*
X834449Y517313D01*
X833405Y517592D01*
X832381Y517940D01*
X831383Y518354D01*
X830413Y518832D01*
X829477Y519372D01*
X828578Y519973D01*
X827721Y520631D01*
X826908Y521344D01*
X826144Y522108D01*
X825431Y522921D01*
X824773Y523778D01*
X824172Y524677D01*
X823632Y525613D01*
X823154Y526583D01*
X822740Y527581D01*
X822392Y528605D01*
X822113Y529649D01*
X821902Y530709D01*
X821761Y531781D01*
X821690Y532860D01*
X821690Y533940D01*
X821761Y535019D01*
X821902Y536091D01*
X822113Y537151D01*
X822392Y538195D01*
X822740Y539219D01*
X823154Y540217D01*
X823632Y541187D01*
X824172Y542123D01*
X824773Y543022D01*
X825431Y543879D01*
X826144Y544692D01*
X826908Y545457D01*
X827721Y546169D01*
X828578Y546827D01*
X829477Y547428D01*
X830413Y547968D01*
X831383Y548446D01*
X832381Y548860D01*
X833405Y549208D01*
X834449Y549487D01*
X835509Y549698D01*
X836581Y549839D01*
X837660Y549910D01*
X838740Y549910D01*
X839819Y549839D01*
X840891Y549698D01*
X841951Y549487D01*
X842995Y549208D01*
X844019Y548860D01*
X845017Y548446D01*
X845987Y547968D01*
X846923Y547428D01*
X847822Y546827D01*
X848679Y546169D01*
X849492Y545457D01*
X850257Y544692D01*
X850969Y543879D01*
X851627Y543022D01*
X852228Y542123D01*
X852768Y541187D01*
X853246Y540217D01*
X853660Y539219D01*
X854008Y538195D01*
X854287Y537151D01*
X854498Y536091D01*
X854639Y535019D01*
X854710Y533940D01*
X854710Y532860D01*
X41910Y532860D02*
X41839Y531781D01*
X41698Y530709D01*
X41487Y529649D01*
X41208Y528605D01*
X40860Y527581D01*
X40446Y526583D01*
X39968Y525613D01*
X39428Y524677D01*
X38827Y523778D01*
X38169Y522921D01*
X37457Y522108D01*
X36692Y521344D01*
X35879Y520631D01*
X35022Y519973D01*
X34123Y519372D01*
X33187Y518832D01*
X32217Y518354D01*
X31219Y517940D01*
X30195Y517592D01*
X29151Y517313D01*
X28091Y517102D01*
X27019Y516961D01*
X25940Y516890D01*
X24860Y516890D01*
X23781Y516961D01*
X22709Y517102D01*
X21649Y517313D01*
X20605Y517592D01*
X19581Y517940D01*
X18583Y518354D01*
X17613Y518832D01*
X16677Y519372D01*
X15778Y519973D01*
X14921Y520631D01*
X14108Y521344D01*
X13344Y522108D01*
X12631Y522921D01*
X11973Y523778D01*
X11372Y524677D01*
X10832Y525613D01*
X10354Y526583D01*
X9940Y527581D01*
X9592Y528605D01*
X9313Y529649D01*
X9102Y530709D01*
X8961Y531781D01*
X8890Y532860D01*
X8890Y533940D01*
X8961Y535019D01*
X9102Y536091D01*
X9313Y537151D01*
X9592Y538195D01*
X9940Y539219D01*
X10354Y540217D01*
X10832Y541187D01*
X11372Y542123D01*
X11973Y543022D01*
X12631Y543879D01*
X13344Y544692D01*
X14108Y545457D01*
X14921Y546169D01*
X15778Y546827D01*
X16677Y547428D01*
X17613Y547968D01*
X18583Y548446D01*
X19581Y548860D01*
X20605Y549208D01*
X21649Y549487D01*
X22709Y549698D01*
X23781Y549839D01*
X24860Y549910D01*
X25940Y549910D01*
X27019Y549839D01*
X28091Y549698D01*
X29151Y549487D01*
X30195Y549208D01*
X31219Y548860D01*
X32217Y548446D01*
X33187Y547968D01*
X34123Y547428D01*
X35022Y546827D01*
X35879Y546169D01*
X36692Y545457D01*
X37457Y544692D01*
X38169Y543879D01*
X38827Y543022D01*
X39428Y542123D01*
X39968Y541187D01*
X40446Y540217D01*
X40860Y539219D01*
X41208Y538195D01*
X41487Y537151D01*
X41698Y536091D01*
X41839Y535019D01*
X41910Y533940D01*
X41910Y532860D01*
X854710Y24860D02*
X854639Y23781D01*
X854498Y22709D01*
X854287Y21649D01*
X854008Y20605D01*
X853660Y19581D01*
X853246Y18583D01*
X852768Y17613D01*
X852228Y16677D01*
X851627Y15778D01*
X850969Y14921D01*
X850257Y14108D01*
X849492Y13344D01*
X848679Y12631D01*
X847822Y11973D01*
X846923Y11372D01*
X845987Y10832D01*
X845017Y10354D01*
X844019Y9940D01*
X842995Y9592D01*
X841951Y9313D01*
X840891Y9102D01*
X839819Y8961D01*
X838740Y8890D01*
X837660Y8890D01*
X836581Y8961D01*
X835509Y9102D01*
X834449Y9313D01*
X833405Y9592D01*
X832381Y9940D01*
X831383Y10354D01*
X830413Y10832D01*
X829477Y11372D01*
X828578Y11973D01*
X827721Y12631D01*
X826908Y13344D01*
X826144Y14108D01*
X825431Y14921D01*
X824773Y15778D01*
X824172Y16677D01*
X823632Y17613D01*
X823154Y18583D01*
X822740Y19581D01*
X822392Y20605D01*
X822113Y21649D01*
X821902Y22709D01*
X821761Y23781D01*
X821690Y24860D01*
X821690Y25940D01*
X821761Y27019D01*
X821902Y28091D01*
X822113Y29151D01*
X822392Y30195D01*
X822740Y31219D01*
X823154Y32217D01*
X823632Y33187D01*
X824172Y34123D01*
X824773Y35022D01*
X825431Y35879D01*
X826144Y36692D01*
X826908Y37457D01*
X827721Y38169D01*
X828578Y38827D01*
X829477Y39428D01*
X830413Y39968D01*
X831383Y40446D01*
X832381Y40860D01*
X833405Y41208D01*
X834449Y41487D01*
X835509Y41698D01*
X836581Y41839D01*
X837660Y41910D01*
X838740Y41910D01*
X839819Y41839D01*
X840891Y41698D01*
X841951Y41487D01*
X842995Y41208D01*
X844019Y40860D01*
X845017Y40446D01*
X845987Y39968D01*
X846923Y39428D01*
X847822Y38827D01*
X848679Y38169D01*
X849492Y37457D01*
X850257Y36692D01*
X850969Y35879D01*
X851627Y35022D01*
X852228Y34123D01*
X852768Y33187D01*
X853246Y32217D01*
X853660Y31219D01*
X854008Y30195D01*
X854287Y29151D01*
X854498Y28091D01*
X854639Y27019D01*
X854710Y25940D01*
X854710Y24860D01*
X41910Y24860D02*
X41839Y23781D01*
X41698Y22709D01*
X41487Y21649D01*
X41208Y20605D01*
X40860Y19581D01*
X40446Y18583D01*
X39968Y17613D01*
X39428Y16677D01*
X38827Y15778D01*
X38169Y14921D01*
X37457Y14108D01*
X36692Y13344D01*
X35879Y12631D01*
X35022Y11973D01*
X34123Y11372D01*
X33187Y10832D01*
X32217Y10354D01*
X31219Y9940D01*
X30195Y9592D01*
X29151Y9313D01*
X28091Y9102D01*
X27019Y8961D01*
X25940Y8890D01*
X24860Y8890D01*
X23781Y8961D01*
X22709Y9102D01*
X21649Y9313D01*
X20605Y9592D01*
X19581Y9940D01*
X18583Y10354D01*
X17613Y10832D01*
X16677Y11372D01*
X15778Y11973D01*
X14921Y12631D01*
X14108Y13344D01*
X13344Y14108D01*
X12631Y14921D01*
X11973Y15778D01*
X11372Y16677D01*
X10832Y17613D01*
X10354Y18583D01*
X9940Y19581D01*
X9592Y20605D01*
X9313Y21649D01*
X9102Y22709D01*
X8961Y23781D01*
X8890Y24860D01*
X8890Y25940D01*
X8961Y27019D01*
X9102Y28091D01*
X9313Y29151D01*
X9592Y30195D01*
X9940Y31219D01*
X10354Y32217D01*
X10832Y33187D01*
X11372Y34123D01*
X11973Y35022D01*
X12631Y35879D01*
X13344Y36692D01*
X14108Y37457D01*
X14921Y38169D01*
X15778Y38827D01*
X16677Y39428D01*
X17613Y39968D01*
X18583Y40446D01*
X19581Y40860D01*
X20605Y41208D01*
X21649Y41487D01*
X22709Y41698D01*
X23781Y41839D01*
X24860Y41910D01*
X25940Y41910D01*
X27019Y41839D01*
X28091Y41698D01*
X29151Y41487D01*
X30195Y41208D01*
X31219Y40860D01*
X32217Y40446D01*
X33187Y39968D01*
X34123Y39428D01*
X35022Y38827D01*
X35879Y38169D01*
X36692Y37457D01*
X37457Y36692D01*
X38169Y35879D01*
X38827Y35022D01*
X39428Y34123D01*
X39968Y33187D01*
X40446Y32217D01*
X40860Y31219D01*
X41208Y30195D01*
X41487Y29151D01*
X41698Y28091D01*
X41839Y27019D01*
X41910Y25940D01*
X41910Y24860D01*
X355291Y173900D02*
X354677Y173969D01*
X354075Y174107D01*
X353492Y174311D01*
X352935Y174579D01*
X352412Y174907D01*
X351929Y175293D01*
X351493Y175729D01*
X351107Y176212D01*
X350779Y176735D01*
X350511Y177292D01*
X350307Y177875D01*
X350169Y178477D01*
X350100Y179091D01*
X350100Y179709D01*
X350169Y180323D01*
X350307Y180925D01*
X350511Y181508D01*
X350779Y182065D01*
X351107Y182588D01*
X351493Y183071D01*
X351929Y183508D01*
X352412Y183893D01*
X352935Y184221D01*
X353492Y184489D01*
X354075Y184693D01*
X354677Y184831D01*
X355291Y184900D01*
X355909Y184900D01*
X356523Y184831D01*
X357125Y184693D01*
X357708Y184489D01*
X358265Y184221D01*
X358788Y183893D01*
X359271Y183508D01*
X359708Y183071D01*
X360093Y182588D01*
X360421Y182065D01*
X360689Y181508D01*
X360893Y180925D01*
X361031Y180323D01*
X361100Y179709D01*
X361100Y179091D01*
X361031Y178477D01*
X360893Y177875D01*
X360689Y177292D01*
X360421Y176735D01*
X360093Y176212D01*
X359708Y175729D01*
X359271Y175293D01*
X358788Y174907D01*
X358265Y174579D01*
X357708Y174311D01*
X357125Y174107D01*
X356523Y173969D01*
X355909Y173900D01*
X355291Y173900D01*
X355207Y371400D02*
X354425Y371477D01*
X353654Y371630D01*
X352902Y371859D01*
X352175Y372159D01*
X351482Y372530D01*
X350829Y372967D01*
X350221Y373465D01*
X349665Y374021D01*
X349167Y374629D01*
X348730Y375282D01*
X348359Y375975D01*
X348059Y376702D01*
X347830Y377454D01*
X347677Y378225D01*
X347600Y379007D01*
X347600Y379793D01*
X347677Y380575D01*
X347830Y381346D01*
X348059Y382098D01*
X348359Y382825D01*
X348730Y383518D01*
X349167Y384171D01*
X349665Y384779D01*
X350221Y385335D01*
X350829Y385833D01*
X351482Y386270D01*
X352175Y386641D01*
X352902Y386941D01*
X353654Y387170D01*
X354425Y387323D01*
X355207Y387400D01*
X355993Y387400D01*
X356775Y387323D01*
X357546Y387170D01*
X358298Y386941D01*
X359025Y386641D01*
X359718Y386270D01*
X360371Y385833D01*
X360979Y385335D01*
X361535Y384779D01*
X362033Y384171D01*
X362470Y383518D01*
X362841Y382825D01*
X363141Y382098D01*
X363370Y381346D01*
X363523Y380575D01*
X363600Y379793D01*
X363600Y379007D01*
X363523Y378225D01*
X363370Y377454D01*
X363141Y376702D01*
X362841Y375975D01*
X362470Y375282D01*
X362033Y374629D01*
X361535Y374021D01*
X360979Y373465D01*
X360371Y372967D01*
X359718Y372530D01*
X359025Y372159D01*
X358298Y371859D01*
X357546Y371630D01*
X356775Y371477D01*
X355993Y371400D01*
X355207Y371400D01*
X651510Y228060D02*
X651439Y226981D01*
X651298Y225909D01*
X651087Y224849D01*
X650808Y223805D01*
X650460Y222781D01*
X650046Y221783D01*
X649568Y220813D01*
X649028Y219877D01*
X648427Y218978D01*
X647769Y218121D01*
X647057Y217308D01*
X646292Y216544D01*
X645479Y215831D01*
X644622Y215173D01*
X643723Y214572D01*
X642787Y214032D01*
X641817Y213554D01*
X640819Y213140D01*
X639795Y212792D01*
X638751Y212513D01*
X637691Y212302D01*
X636619Y212161D01*
X635540Y212090D01*
X634460Y212090D01*
X633381Y212161D01*
X632309Y212302D01*
X631249Y212513D01*
X630205Y212792D01*
X629181Y213140D01*
X628183Y213554D01*
X627213Y214032D01*
X626277Y214572D01*
X625378Y215173D01*
X624521Y215831D01*
X623708Y216544D01*
X622944Y217308D01*
X622231Y218121D01*
X621573Y218978D01*
X620972Y219877D01*
X620432Y220813D01*
X619954Y221783D01*
X619540Y222781D01*
X619192Y223805D01*
X618913Y224849D01*
X618702Y225909D01*
X618561Y226981D01*
X618490Y228060D01*
X618490Y229140D01*
X618561Y230219D01*
X618702Y231291D01*
X618913Y232351D01*
X619192Y233395D01*
X619540Y234419D01*
X619954Y235417D01*
X620432Y236387D01*
X620972Y237323D01*
X621573Y238222D01*
X622231Y239079D01*
X622944Y239892D01*
X623708Y240657D01*
X624521Y241369D01*
X625378Y242027D01*
X626277Y242628D01*
X627213Y243168D01*
X628183Y243646D01*
X629181Y244060D01*
X630205Y244408D01*
X631249Y244687D01*
X632309Y244898D01*
X633381Y245039D01*
X634460Y245110D01*
X635540Y245110D01*
X636619Y245039D01*
X637691Y244898D01*
X638751Y244687D01*
X639795Y244408D01*
X640819Y244060D01*
X641817Y243646D01*
X642787Y243168D01*
X643723Y242628D01*
X644622Y242027D01*
X645479Y241369D01*
X646292Y240657D01*
X647057Y239892D01*
X647769Y239079D01*
X648427Y238222D01*
X649028Y237323D01*
X649568Y236387D01*
X650046Y235417D01*
X650460Y234419D01*
X650808Y233395D01*
X651087Y232351D01*
X651298Y231291D01*
X651439Y230219D01*
X651510Y229140D01*
X651510Y228060D01*
X651510Y329660D02*
X651439Y328581D01*
X651298Y327509D01*
X651087Y326449D01*
X650808Y325405D01*
X650460Y324381D01*
X650046Y323383D01*
X649568Y322413D01*
X649028Y321477D01*
X648427Y320578D01*
X647769Y319721D01*
X647057Y318908D01*
X646292Y318144D01*
X645479Y317431D01*
X644622Y316773D01*
X643723Y316172D01*
X642787Y315632D01*
X641817Y315154D01*
X640819Y314740D01*
X639795Y314392D01*
X638751Y314113D01*
X637691Y313902D01*
X636619Y313761D01*
X635540Y313690D01*
X634460Y313690D01*
X633381Y313761D01*
X632309Y313902D01*
X631249Y314113D01*
X630205Y314392D01*
X629181Y314740D01*
X628183Y315154D01*
X627213Y315632D01*
X626277Y316172D01*
X625378Y316773D01*
X624521Y317431D01*
X623708Y318144D01*
X622944Y318908D01*
X622231Y319721D01*
X621573Y320578D01*
X620972Y321477D01*
X620432Y322413D01*
X619954Y323383D01*
X619540Y324381D01*
X619192Y325405D01*
X618913Y326449D01*
X618702Y327509D01*
X618561Y328581D01*
X618490Y329660D01*
X618490Y330740D01*
X618561Y331819D01*
X618702Y332891D01*
X618913Y333951D01*
X619192Y334995D01*
X619540Y336019D01*
X619954Y337017D01*
X620432Y337987D01*
X620972Y338923D01*
X621573Y339822D01*
X622231Y340679D01*
X622944Y341492D01*
X623708Y342257D01*
X624521Y342969D01*
X625378Y343627D01*
X626277Y344228D01*
X627213Y344768D01*
X628183Y345246D01*
X629181Y345660D01*
X630205Y346008D01*
X631249Y346287D01*
X632309Y346498D01*
X633381Y346639D01*
X634460Y346710D01*
X635540Y346710D01*
X636619Y346639D01*
X637691Y346498D01*
X638751Y346287D01*
X639795Y346008D01*
X640819Y345660D01*
X641817Y345246D01*
X642787Y344768D01*
X643723Y344228D01*
X644622Y343627D01*
X645479Y342969D01*
X646292Y342257D01*
X647057Y341492D01*
X647769Y340679D01*
X648427Y339822D01*
X649028Y338923D01*
X649568Y337987D01*
X650046Y337017D01*
X650460Y336019D01*
X650808Y334995D01*
X651087Y333951D01*
X651298Y332891D01*
X651439Y331819D01*
X651510Y330740D01*
X651510Y329660D01*
M02*
