G04 EAGLE Gerber RS-274X export*
G75*
%MOMM*%
%FSLAX34Y34*%
%LPD*%
%INSoldermask Top*%
%IPPOS*%
%AMOC8*
5,1,8,0,0,1.08239X$1,22.5*%
G01*
%ADD10R,1.203200X0.503200*%
%ADD11R,1.203200X0.803200*%
%ADD12C,0.853200*%
%ADD13R,1.203200X1.303200*%
%ADD14R,0.503200X0.853200*%
%ADD15R,2.553200X1.803200*%
%ADD16R,1.303200X1.203200*%
%ADD17C,0.838200*%
%ADD18C,3.505200*%
%ADD19R,1.700000X4.200000*%
%ADD20R,0.833200X1.033200*%
%ADD21R,1.727200X0.965200*%
%ADD22R,0.838200X1.473200*%
%ADD23R,1.203200X3.003200*%
%ADD24R,1.603200X1.803200*%
%ADD25C,2.082800*%
%ADD26C,1.203200*%
%ADD27C,6.203200*%
%ADD28C,1.303200*%
%ADD29C,1.803200*%
%ADD30R,1.753200X0.503200*%
%ADD31R,2.953200X1.403200*%
%ADD32C,3.530600*%
%ADD33R,3.203200X1.103200*%
%ADD34R,1.200000X2.200000*%
%ADD35R,2.203200X1.403200*%
%ADD36R,1.553200X0.803200*%
%ADD37R,2.200000X1.200000*%
%ADD38C,0.505344*%
%ADD39R,2.413200X1.723200*%

G36*
X669166Y381017D02*
X669166Y381017D01*
X669193Y381013D01*
X669234Y381031D01*
X669276Y381040D01*
X669312Y381066D01*
X669321Y381070D01*
X669325Y381075D01*
X669336Y381084D01*
X693336Y405084D01*
X693357Y405122D01*
X693386Y405155D01*
X693390Y405182D01*
X693403Y405206D01*
X693400Y405250D01*
X693407Y405293D01*
X693396Y405319D01*
X693394Y405346D01*
X693368Y405381D01*
X693350Y405421D01*
X693327Y405436D01*
X693311Y405458D01*
X693270Y405474D01*
X693234Y405498D01*
X693190Y405505D01*
X693181Y405508D01*
X693174Y405507D01*
X693160Y405509D01*
X669160Y405509D01*
X669144Y405504D01*
X669127Y405507D01*
X669077Y405485D01*
X669026Y405470D01*
X669015Y405457D01*
X668999Y405450D01*
X668969Y405405D01*
X668934Y405365D01*
X668931Y405348D01*
X668922Y405334D01*
X668911Y405260D01*
X668911Y381260D01*
X668923Y381218D01*
X668926Y381174D01*
X668942Y381152D01*
X668950Y381126D01*
X668983Y381097D01*
X669009Y381062D01*
X669035Y381052D01*
X669055Y381034D01*
X669099Y381027D01*
X669139Y381012D01*
X669166Y381017D01*
G37*
G36*
X60304Y128554D02*
X60304Y128554D01*
X60307Y128551D01*
X61429Y128706D01*
X61434Y128711D01*
X61438Y128708D01*
X62509Y129079D01*
X62513Y129085D01*
X62518Y129083D01*
X63495Y129656D01*
X63498Y129662D01*
X63503Y129661D01*
X64350Y130414D01*
X64352Y130421D01*
X64357Y130421D01*
X65041Y131324D01*
X65041Y131331D01*
X65046Y131332D01*
X65541Y132351D01*
X65539Y132358D01*
X65544Y132360D01*
X65831Y133457D01*
X65829Y133461D01*
X65831Y133462D01*
X65829Y133464D01*
X65832Y133466D01*
X65899Y134597D01*
X65897Y134601D01*
X65899Y134603D01*
X65832Y135734D01*
X65827Y135739D01*
X65831Y135743D01*
X65544Y136840D01*
X65538Y136844D01*
X65541Y136849D01*
X65046Y137868D01*
X65040Y137871D01*
X65041Y137876D01*
X64357Y138779D01*
X64350Y138781D01*
X64350Y138786D01*
X63503Y139539D01*
X63496Y139539D01*
X63495Y139544D01*
X62518Y140117D01*
X62511Y140116D01*
X62509Y140121D01*
X61438Y140492D01*
X61432Y140489D01*
X61429Y140494D01*
X60307Y140649D01*
X60302Y140646D01*
X60300Y140649D01*
X48300Y140649D01*
X48295Y140646D01*
X48292Y140649D01*
X47025Y140444D01*
X47019Y140438D01*
X47015Y140441D01*
X45825Y139959D01*
X45821Y139952D01*
X45815Y139954D01*
X44762Y139220D01*
X44760Y139212D01*
X44754Y139213D01*
X43891Y138263D01*
X43890Y138254D01*
X43885Y138254D01*
X43255Y137135D01*
X43256Y137127D01*
X43250Y137125D01*
X42885Y135895D01*
X42888Y135887D01*
X42883Y135884D01*
X42801Y134603D01*
X42804Y134599D01*
X42801Y134597D01*
X42883Y133316D01*
X42889Y133310D01*
X42885Y133305D01*
X43250Y132075D01*
X43257Y132070D01*
X43255Y132065D01*
X43885Y130946D01*
X43892Y130943D01*
X43891Y130937D01*
X44754Y129987D01*
X44762Y129986D01*
X44762Y129980D01*
X45815Y129246D01*
X45823Y129246D01*
X45825Y129241D01*
X47015Y128759D01*
X47022Y128761D01*
X47025Y128756D01*
X48292Y128551D01*
X48297Y128554D01*
X48300Y128551D01*
X60300Y128551D01*
X60304Y128554D01*
G37*
G36*
X60304Y214954D02*
X60304Y214954D01*
X60307Y214951D01*
X61429Y215106D01*
X61434Y215111D01*
X61438Y215108D01*
X62509Y215479D01*
X62513Y215485D01*
X62518Y215483D01*
X63495Y216056D01*
X63498Y216062D01*
X63503Y216061D01*
X64350Y216814D01*
X64352Y216821D01*
X64357Y216821D01*
X65041Y217724D01*
X65041Y217731D01*
X65046Y217732D01*
X65541Y218751D01*
X65539Y218758D01*
X65544Y218760D01*
X65831Y219857D01*
X65829Y219861D01*
X65831Y219862D01*
X65829Y219864D01*
X65832Y219866D01*
X65899Y220997D01*
X65897Y221001D01*
X65899Y221003D01*
X65832Y222134D01*
X65827Y222139D01*
X65831Y222143D01*
X65544Y223240D01*
X65538Y223244D01*
X65541Y223249D01*
X65046Y224268D01*
X65040Y224271D01*
X65041Y224276D01*
X64357Y225179D01*
X64350Y225181D01*
X64350Y225186D01*
X63503Y225939D01*
X63496Y225939D01*
X63495Y225944D01*
X62518Y226517D01*
X62511Y226516D01*
X62509Y226521D01*
X61438Y226892D01*
X61432Y226889D01*
X61429Y226894D01*
X60307Y227049D01*
X60302Y227046D01*
X60300Y227049D01*
X48300Y227049D01*
X48295Y227046D01*
X48292Y227049D01*
X47025Y226844D01*
X47019Y226838D01*
X47015Y226841D01*
X45825Y226359D01*
X45821Y226352D01*
X45815Y226354D01*
X44762Y225620D01*
X44760Y225612D01*
X44754Y225613D01*
X43891Y224663D01*
X43890Y224654D01*
X43885Y224654D01*
X43255Y223535D01*
X43256Y223527D01*
X43250Y223525D01*
X42885Y222295D01*
X42888Y222287D01*
X42883Y222284D01*
X42801Y221003D01*
X42804Y220999D01*
X42801Y220997D01*
X42883Y219716D01*
X42889Y219710D01*
X42885Y219705D01*
X43250Y218475D01*
X43257Y218470D01*
X43255Y218465D01*
X43885Y217346D01*
X43892Y217343D01*
X43891Y217337D01*
X44754Y216387D01*
X44762Y216386D01*
X44762Y216380D01*
X45815Y215646D01*
X45823Y215646D01*
X45825Y215641D01*
X47015Y215159D01*
X47022Y215161D01*
X47025Y215156D01*
X48292Y214951D01*
X48297Y214954D01*
X48300Y214951D01*
X60300Y214951D01*
X60304Y214954D01*
G37*
G36*
X15503Y128553D02*
X15503Y128553D01*
X15505Y128551D01*
X16681Y128662D01*
X16686Y128667D01*
X16690Y128664D01*
X17822Y129002D01*
X17826Y129008D01*
X17831Y129006D01*
X18875Y129558D01*
X18878Y129565D01*
X18883Y129563D01*
X19799Y130309D01*
X19800Y130316D01*
X19806Y130316D01*
X20559Y131226D01*
X20559Y131233D01*
X20564Y131234D01*
X21125Y132273D01*
X21124Y132278D01*
X21128Y132280D01*
X21127Y132281D01*
X21129Y132282D01*
X21476Y133411D01*
X21476Y133412D01*
X21477Y133413D01*
X21474Y133417D01*
X21478Y133420D01*
X21599Y134595D01*
X21595Y134602D01*
X21599Y134606D01*
X21442Y135946D01*
X21437Y135952D01*
X21440Y135957D01*
X20989Y137228D01*
X20982Y137233D01*
X20984Y137238D01*
X20262Y138377D01*
X20254Y138380D01*
X20255Y138386D01*
X19297Y139336D01*
X19289Y139337D01*
X19288Y139343D01*
X18143Y140056D01*
X18135Y140055D01*
X18133Y140061D01*
X16857Y140501D01*
X16850Y140499D01*
X16847Y140503D01*
X15505Y140649D01*
X15502Y140647D01*
X15500Y140649D01*
X9500Y140649D01*
X9497Y140647D01*
X9494Y140649D01*
X8165Y140494D01*
X8159Y140488D01*
X8155Y140491D01*
X6894Y140044D01*
X6889Y140037D01*
X6884Y140039D01*
X5754Y139322D01*
X5751Y139315D01*
X5745Y139316D01*
X4803Y138366D01*
X4802Y138357D01*
X4796Y138357D01*
X4089Y137221D01*
X4090Y137213D01*
X4084Y137211D01*
X3648Y135946D01*
X3650Y135938D01*
X3645Y135936D01*
X3501Y134605D01*
X3505Y134599D01*
X3501Y134595D01*
X3611Y133429D01*
X3616Y133424D01*
X3613Y133420D01*
X3948Y132297D01*
X3954Y132293D01*
X3952Y132289D01*
X4500Y131253D01*
X4506Y131250D01*
X4505Y131245D01*
X5244Y130337D01*
X5251Y130335D01*
X5251Y130330D01*
X6153Y129583D01*
X6161Y129583D01*
X6161Y129578D01*
X7192Y129021D01*
X7199Y129022D01*
X7201Y129017D01*
X8320Y128673D01*
X8327Y128675D01*
X8330Y128671D01*
X9495Y128551D01*
X9498Y128553D01*
X9500Y128551D01*
X15500Y128551D01*
X15503Y128553D01*
G37*
G36*
X15503Y214953D02*
X15503Y214953D01*
X15505Y214951D01*
X16681Y215062D01*
X16686Y215067D01*
X16690Y215064D01*
X17822Y215402D01*
X17826Y215408D01*
X17831Y215406D01*
X18875Y215958D01*
X18878Y215965D01*
X18883Y215963D01*
X19799Y216709D01*
X19800Y216716D01*
X19806Y216716D01*
X20559Y217626D01*
X20559Y217633D01*
X20564Y217634D01*
X21125Y218673D01*
X21124Y218678D01*
X21128Y218680D01*
X21127Y218681D01*
X21129Y218682D01*
X21476Y219811D01*
X21476Y219812D01*
X21477Y219813D01*
X21474Y219817D01*
X21478Y219820D01*
X21599Y220995D01*
X21595Y221002D01*
X21599Y221006D01*
X21442Y222346D01*
X21437Y222352D01*
X21440Y222357D01*
X20989Y223628D01*
X20982Y223633D01*
X20984Y223638D01*
X20262Y224777D01*
X20254Y224780D01*
X20255Y224786D01*
X19297Y225736D01*
X19289Y225737D01*
X19288Y225743D01*
X18143Y226456D01*
X18135Y226455D01*
X18133Y226461D01*
X16857Y226901D01*
X16850Y226899D01*
X16847Y226903D01*
X15505Y227049D01*
X15502Y227047D01*
X15500Y227049D01*
X9500Y227049D01*
X9497Y227047D01*
X9494Y227049D01*
X8165Y226894D01*
X8159Y226888D01*
X8155Y226891D01*
X6894Y226444D01*
X6889Y226437D01*
X6884Y226439D01*
X5754Y225722D01*
X5751Y225715D01*
X5745Y225716D01*
X4803Y224766D01*
X4802Y224757D01*
X4796Y224757D01*
X4089Y223621D01*
X4090Y223613D01*
X4084Y223611D01*
X3648Y222346D01*
X3650Y222338D01*
X3645Y222336D01*
X3501Y221005D01*
X3505Y220999D01*
X3501Y220995D01*
X3611Y219829D01*
X3616Y219824D01*
X3613Y219820D01*
X3948Y218697D01*
X3954Y218693D01*
X3952Y218689D01*
X4500Y217653D01*
X4506Y217650D01*
X4505Y217645D01*
X5244Y216737D01*
X5251Y216735D01*
X5251Y216730D01*
X6153Y215983D01*
X6161Y215983D01*
X6161Y215978D01*
X7192Y215421D01*
X7199Y215422D01*
X7201Y215417D01*
X8320Y215073D01*
X8327Y215075D01*
X8330Y215071D01*
X9495Y214951D01*
X9498Y214953D01*
X9500Y214951D01*
X15500Y214951D01*
X15503Y214953D01*
G37*
G36*
X116270Y136283D02*
X116270Y136283D01*
X116336Y136285D01*
X116379Y136303D01*
X116426Y136311D01*
X116483Y136345D01*
X116543Y136370D01*
X116578Y136401D01*
X116619Y136426D01*
X116661Y136477D01*
X116709Y136521D01*
X116731Y136563D01*
X116760Y136600D01*
X116781Y136662D01*
X116812Y136721D01*
X116820Y136775D01*
X116832Y136812D01*
X116831Y136852D01*
X116839Y136906D01*
X116839Y142494D01*
X116828Y142559D01*
X116826Y142625D01*
X116808Y142668D01*
X116800Y142715D01*
X116766Y142772D01*
X116741Y142832D01*
X116710Y142867D01*
X116685Y142908D01*
X116634Y142950D01*
X116590Y142998D01*
X116548Y143020D01*
X116511Y143049D01*
X116449Y143070D01*
X116390Y143101D01*
X116336Y143109D01*
X116299Y143121D01*
X116259Y143120D01*
X116205Y143128D01*
X112395Y143128D01*
X112330Y143117D01*
X112264Y143115D01*
X112221Y143097D01*
X112174Y143089D01*
X112117Y143055D01*
X112057Y143030D01*
X112022Y142999D01*
X111981Y142974D01*
X111940Y142923D01*
X111891Y142879D01*
X111869Y142837D01*
X111840Y142800D01*
X111819Y142738D01*
X111788Y142679D01*
X111780Y142625D01*
X111768Y142588D01*
X111769Y142548D01*
X111761Y142494D01*
X111761Y136906D01*
X111772Y136841D01*
X111774Y136775D01*
X111792Y136732D01*
X111800Y136685D01*
X111834Y136628D01*
X111859Y136568D01*
X111890Y136533D01*
X111915Y136492D01*
X111966Y136451D01*
X112010Y136402D01*
X112052Y136380D01*
X112089Y136351D01*
X112151Y136330D01*
X112210Y136299D01*
X112264Y136291D01*
X112301Y136279D01*
X112341Y136280D01*
X112395Y136272D01*
X116205Y136272D01*
X116270Y136283D01*
G37*
D10*
X60100Y170300D03*
X60100Y175300D03*
D11*
X60100Y145550D03*
X60100Y153300D03*
D10*
X60100Y160300D03*
X60100Y165300D03*
X60100Y185300D03*
X60100Y180300D03*
D11*
X60100Y210050D03*
X60100Y202300D03*
D10*
X60100Y195300D03*
X60100Y190300D03*
D12*
X49050Y206700D03*
X49050Y148900D03*
D13*
X76200Y211700D03*
X76200Y194700D03*
X76200Y143900D03*
X76200Y160900D03*
D14*
X99470Y164050D03*
X105970Y164050D03*
X112470Y164050D03*
X118970Y164050D03*
X118970Y191550D03*
X112470Y191550D03*
X105970Y191550D03*
X99470Y191550D03*
D15*
X109220Y177800D03*
D16*
X100720Y209804D03*
X117720Y209804D03*
D17*
X45720Y45720D03*
X816770Y513080D03*
D18*
X838200Y533400D03*
X25400Y533400D03*
X838200Y25400D03*
X25400Y25400D03*
D19*
X714460Y384460D03*
D20*
X633660Y388620D03*
X656660Y388620D03*
D16*
X653914Y405384D03*
X636914Y405384D03*
D20*
X633660Y372110D03*
X656660Y372110D03*
D21*
X152400Y19050D03*
X96520Y19050D03*
X152400Y57150D03*
X96520Y57150D03*
D16*
X100720Y225044D03*
X117720Y225044D03*
D22*
X109982Y276606D03*
X118110Y276606D03*
D23*
X58152Y248666D03*
X88152Y248666D03*
D24*
X136682Y251206D03*
X108682Y251206D03*
D13*
X157480Y209940D03*
X157480Y226940D03*
X142494Y227194D03*
X142494Y210194D03*
D22*
X109220Y139700D03*
X119380Y139700D03*
D25*
X101600Y139700D03*
X127000Y139700D03*
D26*
X211582Y252476D03*
X211582Y265176D03*
X211582Y277876D03*
X211582Y290576D03*
X211582Y239776D03*
X198882Y252476D03*
X198882Y265176D03*
X198882Y277876D03*
X198882Y290576D03*
X198882Y239776D03*
D21*
X231140Y19050D03*
X175260Y19050D03*
X231140Y57150D03*
X175260Y57150D03*
D27*
X555498Y239268D03*
D16*
X138312Y185674D03*
X155312Y185674D03*
D20*
X135312Y168656D03*
X158312Y168656D03*
D13*
X147320Y140580D03*
X147320Y123580D03*
X162560Y140580D03*
X162560Y123580D03*
X177800Y140580D03*
X177800Y123580D03*
D28*
X355600Y179400D03*
D29*
X355600Y379400D03*
D30*
X302850Y186900D03*
D31*
X310600Y175900D03*
X310600Y382900D03*
D30*
X378350Y189400D03*
X302850Y191900D03*
X378350Y194400D03*
X302850Y196900D03*
X378350Y199400D03*
X302850Y201900D03*
X378350Y204400D03*
X302850Y206900D03*
X378350Y209400D03*
X302850Y211900D03*
X378350Y214400D03*
X302850Y216900D03*
X378350Y219400D03*
X302850Y221900D03*
X378350Y224400D03*
X302850Y226900D03*
X378350Y229400D03*
X302850Y231900D03*
X378350Y234400D03*
X302850Y236900D03*
X378350Y239400D03*
X302850Y241900D03*
X378350Y264400D03*
X302850Y266900D03*
X378350Y269400D03*
X302850Y271900D03*
X378350Y274400D03*
X302850Y276900D03*
X378350Y279400D03*
X302850Y281900D03*
X378350Y284400D03*
X302850Y286900D03*
X378350Y289400D03*
X302850Y291900D03*
X378350Y294400D03*
X302850Y296900D03*
X378350Y299400D03*
X302850Y301900D03*
X378350Y304400D03*
X302850Y306900D03*
X378350Y309400D03*
X302850Y311900D03*
X378350Y314400D03*
X302850Y316900D03*
X378350Y319400D03*
X302850Y321900D03*
X378350Y324400D03*
X302850Y326900D03*
X378350Y329400D03*
X302850Y331900D03*
X378350Y334400D03*
X302850Y336900D03*
X378350Y339400D03*
X302850Y341900D03*
X378350Y344400D03*
X302850Y346900D03*
X378350Y349400D03*
X302850Y351900D03*
X378350Y354400D03*
X302850Y356900D03*
X378350Y359400D03*
X302850Y361900D03*
X378350Y364400D03*
X302850Y366900D03*
X378350Y369400D03*
X302850Y371900D03*
D32*
X93500Y303403D03*
X93500Y434721D03*
D33*
X135620Y379062D03*
X135620Y404062D03*
X135620Y359062D03*
X135620Y334062D03*
D25*
X850900Y381000D03*
X850900Y355600D03*
X850900Y330200D03*
X850900Y304800D03*
D34*
X546300Y67400D03*
X546100Y34400D03*
X571700Y67400D03*
X571500Y34400D03*
X520800Y67400D03*
X520600Y34400D03*
X495500Y67400D03*
X495300Y34400D03*
X470100Y67400D03*
X469900Y34400D03*
X444600Y67400D03*
X444400Y34400D03*
X393900Y67400D03*
X393700Y34400D03*
X419300Y67400D03*
X419100Y34400D03*
D25*
X571500Y12700D03*
X546100Y12700D03*
X520700Y12700D03*
X495300Y12700D03*
X469900Y12700D03*
X444500Y12700D03*
X419100Y12700D03*
X393700Y12700D03*
D34*
X762200Y67400D03*
X762000Y34400D03*
X787600Y67400D03*
X787400Y34400D03*
X736700Y67400D03*
X736500Y34400D03*
X711400Y67400D03*
X711200Y34400D03*
X686000Y67400D03*
X685800Y34400D03*
X660500Y67400D03*
X660300Y34400D03*
X609800Y67400D03*
X609600Y34400D03*
X635200Y67400D03*
X635000Y34400D03*
D25*
X787400Y12700D03*
X762000Y12700D03*
X736600Y12700D03*
X711200Y12700D03*
X685800Y12700D03*
X660400Y12700D03*
X635000Y12700D03*
X609600Y12700D03*
D35*
X849550Y403800D03*
X849550Y459800D03*
D36*
X812800Y416800D03*
X812800Y426800D03*
X812800Y436800D03*
X812800Y446800D03*
D35*
X849550Y73600D03*
X849550Y129600D03*
D36*
X812800Y86600D03*
X812800Y96600D03*
X812800Y106600D03*
X812800Y116600D03*
D25*
X76350Y546100D03*
X101750Y546100D03*
X127150Y546100D03*
X152550Y546100D03*
D37*
X796200Y355800D03*
X829200Y355600D03*
X796200Y381200D03*
X829200Y381000D03*
X796200Y330300D03*
X829200Y330100D03*
X796200Y305000D03*
X829200Y304800D03*
D34*
X418900Y491400D03*
X419100Y524400D03*
X393500Y491400D03*
X393700Y524400D03*
X444400Y491400D03*
X444600Y524400D03*
X469700Y491400D03*
X469900Y524400D03*
X495100Y491400D03*
X495300Y524400D03*
X520600Y491400D03*
X520800Y524400D03*
X571300Y491400D03*
X571500Y524400D03*
X545900Y491400D03*
X546100Y524400D03*
X634800Y491400D03*
X635000Y524400D03*
X609400Y491400D03*
X609600Y524400D03*
X660300Y491400D03*
X660500Y524400D03*
X685600Y491400D03*
X685800Y524400D03*
X711000Y491400D03*
X711200Y524400D03*
X736500Y491400D03*
X736700Y524400D03*
X787200Y491400D03*
X787400Y524400D03*
X761800Y491400D03*
X762000Y524400D03*
X330400Y67400D03*
X330200Y34400D03*
X355800Y67400D03*
X355600Y34400D03*
X304900Y67400D03*
X304700Y34400D03*
X279600Y67400D03*
X279400Y34400D03*
D25*
X279400Y12700D03*
X304800Y12700D03*
X330200Y12700D03*
X355600Y12700D03*
X168910Y398780D03*
X168910Y373380D03*
X168910Y347980D03*
X168910Y322580D03*
D34*
X101400Y491400D03*
X101600Y524400D03*
X76000Y491400D03*
X76200Y524400D03*
X126900Y491400D03*
X127100Y524400D03*
X152200Y491400D03*
X152400Y524400D03*
X177600Y491400D03*
X177800Y524400D03*
X203100Y491400D03*
X203300Y524400D03*
X253800Y491400D03*
X254000Y524400D03*
X228400Y491400D03*
X228600Y524400D03*
X279200Y491400D03*
X279400Y524400D03*
X304700Y491400D03*
X304900Y524400D03*
X355400Y491400D03*
X355600Y524400D03*
X330000Y491400D03*
X330200Y524400D03*
D25*
X355600Y546100D03*
X330200Y546100D03*
X304800Y546100D03*
X279400Y546100D03*
X254000Y546100D03*
X228600Y546100D03*
X203200Y546100D03*
X177800Y546100D03*
D38*
X71320Y92390D02*
X71320Y85410D01*
X71320Y92390D02*
X78300Y92390D01*
X78300Y85410D01*
X71320Y85410D01*
X71320Y90210D02*
X78300Y90210D01*
X53780Y92390D02*
X53780Y85410D01*
X53780Y92390D02*
X60760Y92390D01*
X60760Y85410D01*
X53780Y85410D01*
X53780Y90210D02*
X60760Y90210D01*
X71320Y72070D02*
X71320Y65090D01*
X71320Y72070D02*
X78300Y72070D01*
X78300Y65090D01*
X71320Y65090D01*
X71320Y69890D02*
X78300Y69890D01*
X53780Y72070D02*
X53780Y65090D01*
X53780Y72070D02*
X60760Y72070D01*
X60760Y65090D01*
X53780Y65090D01*
X53780Y69890D02*
X60760Y69890D01*
D16*
X38980Y88900D03*
X21980Y88900D03*
X40250Y68580D03*
X23250Y68580D03*
D25*
X850900Y254000D03*
X850900Y228600D03*
X850900Y203200D03*
X850900Y177800D03*
X850900Y152400D03*
D37*
X796200Y228800D03*
X829200Y228600D03*
X796200Y254200D03*
X829200Y254000D03*
X796200Y203300D03*
X829200Y203100D03*
X796200Y178000D03*
X829200Y177800D03*
X796200Y152600D03*
X829200Y152400D03*
D18*
X635000Y228600D03*
X635000Y330200D03*
D25*
X393700Y546100D03*
X419100Y546100D03*
X444500Y546100D03*
X469900Y546100D03*
X495300Y546100D03*
X520700Y546100D03*
X546100Y546100D03*
X571500Y546100D03*
X609600Y546100D03*
X635000Y546100D03*
X660400Y546100D03*
X685800Y546100D03*
X711200Y546100D03*
X736600Y546100D03*
X762000Y546100D03*
X787400Y546100D03*
D22*
X185166Y181610D03*
X193294Y181610D03*
D39*
X27178Y240030D03*
X27178Y280730D03*
M02*
