G04 EAGLE Gerber RS-274X export*
G75*
%MOMM*%
%FSLAX34Y34*%
%LPD*%
%INSoldermask Bottom*%
%IPPOS*%
%AMOC8*
5,1,8,0,0,1.08239X$1,22.5*%
G01*
%ADD10C,0.853200*%
%ADD11C,0.838200*%
%ADD12C,3.505200*%
%ADD13C,2.082800*%
%ADD14C,1.203200*%
%ADD15C,6.203200*%
%ADD16C,1.303200*%
%ADD17C,1.803200*%
%ADD18C,3.530600*%
%ADD19R,0.863600X1.473200*%
%ADD20C,1.473200*%

G36*
X68010Y87007D02*
X68010Y87007D01*
X68076Y87009D01*
X68119Y87027D01*
X68166Y87035D01*
X68223Y87069D01*
X68283Y87094D01*
X68318Y87125D01*
X68359Y87150D01*
X68401Y87201D01*
X68449Y87245D01*
X68471Y87287D01*
X68500Y87324D01*
X68521Y87386D01*
X68552Y87445D01*
X68560Y87499D01*
X68572Y87536D01*
X68571Y87576D01*
X68579Y87630D01*
X68579Y90170D01*
X68568Y90235D01*
X68566Y90301D01*
X68548Y90344D01*
X68540Y90391D01*
X68506Y90448D01*
X68481Y90508D01*
X68450Y90543D01*
X68425Y90584D01*
X68374Y90626D01*
X68330Y90674D01*
X68288Y90696D01*
X68251Y90725D01*
X68189Y90746D01*
X68130Y90777D01*
X68076Y90785D01*
X68039Y90797D01*
X67999Y90796D01*
X67945Y90804D01*
X64135Y90804D01*
X64070Y90793D01*
X64004Y90791D01*
X63961Y90773D01*
X63914Y90765D01*
X63857Y90731D01*
X63797Y90706D01*
X63762Y90675D01*
X63721Y90650D01*
X63680Y90599D01*
X63631Y90555D01*
X63609Y90513D01*
X63580Y90476D01*
X63559Y90414D01*
X63528Y90355D01*
X63520Y90301D01*
X63508Y90264D01*
X63508Y90261D01*
X63509Y90224D01*
X63501Y90170D01*
X63501Y87630D01*
X63512Y87565D01*
X63514Y87499D01*
X63532Y87456D01*
X63540Y87409D01*
X63574Y87352D01*
X63599Y87292D01*
X63630Y87257D01*
X63655Y87216D01*
X63706Y87175D01*
X63750Y87126D01*
X63792Y87104D01*
X63829Y87075D01*
X63891Y87054D01*
X63950Y87023D01*
X64004Y87015D01*
X64041Y87003D01*
X64081Y87004D01*
X64135Y86996D01*
X67945Y86996D01*
X68010Y87007D01*
G37*
G36*
X68010Y66687D02*
X68010Y66687D01*
X68076Y66689D01*
X68119Y66707D01*
X68166Y66715D01*
X68223Y66749D01*
X68283Y66774D01*
X68318Y66805D01*
X68359Y66830D01*
X68401Y66881D01*
X68449Y66925D01*
X68471Y66967D01*
X68500Y67004D01*
X68521Y67066D01*
X68552Y67125D01*
X68560Y67179D01*
X68572Y67216D01*
X68571Y67256D01*
X68579Y67310D01*
X68579Y69850D01*
X68568Y69915D01*
X68566Y69981D01*
X68548Y70024D01*
X68540Y70071D01*
X68506Y70128D01*
X68481Y70188D01*
X68450Y70223D01*
X68425Y70264D01*
X68374Y70306D01*
X68330Y70354D01*
X68288Y70376D01*
X68251Y70405D01*
X68189Y70426D01*
X68130Y70457D01*
X68076Y70465D01*
X68039Y70477D01*
X67999Y70476D01*
X67945Y70484D01*
X64135Y70484D01*
X64070Y70473D01*
X64004Y70471D01*
X63961Y70453D01*
X63914Y70445D01*
X63857Y70411D01*
X63797Y70386D01*
X63762Y70355D01*
X63721Y70330D01*
X63680Y70279D01*
X63631Y70235D01*
X63609Y70193D01*
X63580Y70156D01*
X63559Y70094D01*
X63528Y70035D01*
X63520Y69981D01*
X63508Y69944D01*
X63508Y69941D01*
X63509Y69904D01*
X63501Y69850D01*
X63501Y67310D01*
X63512Y67245D01*
X63514Y67179D01*
X63532Y67136D01*
X63540Y67089D01*
X63574Y67032D01*
X63599Y66972D01*
X63630Y66937D01*
X63655Y66896D01*
X63706Y66855D01*
X63750Y66806D01*
X63792Y66784D01*
X63829Y66755D01*
X63891Y66734D01*
X63950Y66703D01*
X64004Y66695D01*
X64041Y66683D01*
X64081Y66684D01*
X64135Y66676D01*
X67945Y66676D01*
X68010Y66687D01*
G37*
D10*
X49050Y206700D03*
X49050Y148900D03*
D11*
X45720Y45720D03*
X816770Y513080D03*
D12*
X838200Y533400D03*
X25400Y533400D03*
X838200Y25400D03*
X25400Y25400D03*
D13*
X101600Y139700D03*
X127000Y139700D03*
D14*
X211582Y252476D03*
X211582Y265176D03*
X211582Y277876D03*
X211582Y290576D03*
X211582Y239776D03*
X198882Y252476D03*
X198882Y265176D03*
X198882Y277876D03*
X198882Y290576D03*
X198882Y239776D03*
D15*
X555498Y239268D03*
D16*
X355600Y179400D03*
D17*
X355600Y379400D03*
D18*
X93500Y303403D03*
X93500Y434721D03*
D13*
X850900Y381000D03*
X850900Y355600D03*
X850900Y330200D03*
X850900Y304800D03*
X571500Y12700D03*
X546100Y12700D03*
X520700Y12700D03*
X495300Y12700D03*
X469900Y12700D03*
X444500Y12700D03*
X419100Y12700D03*
X393700Y12700D03*
X787400Y12700D03*
X762000Y12700D03*
X736600Y12700D03*
X711200Y12700D03*
X685800Y12700D03*
X660400Y12700D03*
X635000Y12700D03*
X609600Y12700D03*
X76350Y546100D03*
X101750Y546100D03*
X127150Y546100D03*
X152550Y546100D03*
X279400Y12700D03*
X304800Y12700D03*
X330200Y12700D03*
X355600Y12700D03*
X168910Y398780D03*
X168910Y373380D03*
X168910Y347980D03*
X168910Y322580D03*
X355600Y546100D03*
X330200Y546100D03*
X304800Y546100D03*
X279400Y546100D03*
X254000Y546100D03*
X228600Y546100D03*
X203200Y546100D03*
X177800Y546100D03*
D19*
X71247Y88900D03*
X60833Y88900D03*
X71247Y68580D03*
X60833Y68580D03*
D13*
X850900Y254000D03*
X850900Y228600D03*
X850900Y203200D03*
X850900Y177800D03*
X850900Y152400D03*
D12*
X635000Y228600D03*
X635000Y330200D03*
D13*
X393700Y546100D03*
X419100Y546100D03*
X444500Y546100D03*
X469900Y546100D03*
X495300Y546100D03*
X520700Y546100D03*
X546100Y546100D03*
X571500Y546100D03*
X609600Y546100D03*
X635000Y546100D03*
X660400Y546100D03*
X685800Y546100D03*
X711200Y546100D03*
X736600Y546100D03*
X762000Y546100D03*
X787400Y546100D03*
D20*
X584200Y355600D03*
X215900Y304800D03*
X228600Y279400D03*
M02*
